<!DOCTYPE svg PUBLIC "-//W3C//DTD SVG 20010904//EN" "http://www.w3.org/TR/2001/REC-SVG-20010904/DTD/svg10.dtd">
<svg version="1.0" xmlns="http://www.w3.org/2000/svg" width="1386px" height="870px" viewBox="0 0 13860 8700" preserveAspectRatio="xMidYMid meet">
<g id="layer1" fill="#050505" stroke="none">
 <path d="M5366 1732 c-28 -32 -33 -102 -8 -132 20 -24 24 -25 131 -22 121 3 245 -15 305 -43 41 -20 56 -42 36 -55 -7 -4 -198 -10 -424 -12 -267 -3 -420 -8 -436 -16 -14 -6 -46 -16 -72 -23 -57 -16 -131 -76 -158 -130 -19 -36 -20 -60 -20 -402 0 -308 2 -366 15 -377 8 -6 41 -14 74 -17 54 -5 62 -3 85 20 l26 26 0 328 c0 359 1 362 59 385 90 35 131 38 496 38 l364 0 3 -374 3 -374 25 -27 c23 -24 30 -27 82 -23 37 3 64 11 78 23 20 19 21 24 18 526 l-3 507 -30 43 c-72 102 -171 134 -445 145 -179 6 -186 6 -204 -14z"/>
 <path d="M1985 1466 c-137 -28 -240 -74 -297 -133 -69 -72 -68 -59 -68 -583 0 -548 -8 -510 103 -510 92 0 101 12 105 148 3 84 7 110 20 120 12 9 107 12 411 12 376 -1 443 3 516 30 103 38 145 72 179 145 26 53 26 57 26 298 0 264 -3 283 -57 354 -40 52 -149 101 -267 118 -123 19 -580 19 -671 1z m712 -186 c79 -35 84 -54 81 -292 -3 -205 -3 -207 -28 -233 -30 -32 -49 -40 -143 -60 -56 -12 -149 -15 -418 -15 -321 0 -347 1 -354 18 -11 29 -7 490 5 513 12 21 90 60 155 76 22 6 180 11 350 12 286 0 313 -1 352 -19z"/>
 <path d="M3413 1460 c-220 -57 -293 -139 -293 -330 0 -174 54 -250 220 -310 64 -24 71 -24 505 -27 242 -2 450 -5 463 -8 53 -12 5 -64 -83 -89 -37 -11 -96 -16 -194 -16 -126 0 -143 -2 -160 -19 -28 -28 -38 -88 -20 -120 24 -42 54 -46 231 -32 234 19 312 42 386 114 75 73 76 78 77 372 0 242 -2 263 -21 305 -26 58 -74 105 -131 131 -90 41 -185 49 -558 48 -307 -1 -359 -3 -422 -19z m842 -174 c24 -8 49 -26 63 -46 20 -30 22 -45 22 -156 l0 -124 -411 0 c-409 0 -448 3 -524 36 -60 26 -77 55 -77 132 0 38 3 78 6 88 7 22 68 64 93 64 10 0 25 5 33 10 25 16 746 13 795 -4z"/>
 <path d="M6515 1465 c-172 -28 -271 -94 -315 -212 -20 -54 -21 -72 -18 -283 3 -255 7 -268 83 -341 65 -62 125 -87 275 -115 107 -20 603 -19 698 1 136 28 211 68 259 138 28 40 28 43 31 214 3 147 2 177 -12 198 l-16 25 -528 0 c-290 0 -537 3 -549 6 -40 11 -28 70 26 127 52 56 131 77 294 77 l125 0 26 31 c40 47 30 130 -18 143 -38 10 -279 4 -361 -9z m803 -557 c7 -7 12 -39 12 -75 0 -93 -24 -111 -185 -144 -79 -15 -512 -14 -597 2 -120 23 -158 58 -158 148 0 32 5 62 12 69 17 17 899 17 916 0z"/>
 <path d="M7657 1462 c-11 -12 -17 -36 -17 -70 0 -43 4 -54 26 -71 26 -20 37 -21 449 -21 356 0 428 -2 459 -15 56 -24 76 -49 76 -96 0 -105 -19 -111 -420 -119 -226 -5 -337 -11 -365 -20 -104 -34 -123 -43 -158 -76 -59 -56 -71 -87 -71 -184 -1 -101 5 -128 40 -170 58 -68 147 -94 380 -111 186 -14 238 -9 255 22 18 34 15 106 -6 129 -17 19 -31 20 -197 20 -161 0 -183 2 -224 21 l-45 22 3 55 c6 104 36 112 473 122 374 8 405 14 482 88 54 52 66 95 62 213 -4 84 -7 99 -34 142 -23 37 -44 55 -93 79 -35 17 -84 36 -110 41 -26 6 -250 12 -498 14 -429 4 -451 3 -467 -15z"/>
 <path d="M9017 1462 c-15 -17 -17 -73 -17 -604 0 -554 1 -586 18 -601 17 -15 72 -17 583 -17 465 0 577 3 636 15 121 25 176 51 226 104 74 79 77 100 77 488 0 202 -4 351 -11 376 -23 91 -104 169 -219 210 -127 45 -157 47 -731 47 -516 0 -547 -1 -562 -18z m1133 -176 c80 -22 130 -48 150 -76 19 -27 20 -45 20 -360 l0 -332 -30 -28 c-29 -27 -52 -38 -125 -59 -28 -8 -172 -11 -495 -9 l-455 3 -3 415 c-1 228 0 425 3 438 l5 22 443 0 c326 -1 454 -4 487 -14z"/>
 <path d="M10692 1455 c-22 -28 -22 -29 -22 -601 0 -561 0 -574 20 -594 20 -20 33 -20 573 -20 468 0 563 2 622 16 39 9 81 18 95 21 14 3 56 22 95 42 50 26 78 48 100 79 l30 44 0 176 c0 163 -2 180 -22 218 -39 72 -111 127 -203 153 -25 8 -58 18 -75 24 -19 7 -208 13 -517 16 -267 4 -489 9 -493 12 -3 4 -7 95 -8 202 -2 234 0 229 -105 235 -65 4 -70 3 -90 -23z m1121 -609 c82 -17 134 -43 161 -80 18 -23 22 -45 24 -137 5 -147 -6 -164 -124 -195 -76 -19 -984 -21 -984 -1 -3 194 0 396 5 410 7 16 36 17 429 17 325 0 436 -3 489 -14z"/>
 </g>
<g id="layer2" fill="#ff300f" stroke="none">
 <path d="M5400 8330 c0 -5 16 -10 35 -10 19 0 35 5 35 10 0 6 -16 10 -35 10 -19 0 -35 -4 -35 -10z"/>
 <path d="M5877 8302 c-26 -28 -22 -84 7 -111 21 -20 39 -24 116 -29 89 -5 131 4 152 33 15 21 8 81 -12 103 -19 20 -30 22 -134 22 -97 0 -115 -3 -129 -18z"/>
 <path d="M6533 8280 c-29 -17 -33 -25 -33 -63 0 -74 9 -78 250 -93 52 -4 100 -10 106 -15 6 -5 59 -9 118 -10 89 -1 111 2 127 17 20 18 26 77 10 102 -7 12 -49 27 -106 37 -30 6 -240 25 -325 30 -41 2 -84 7 -95 10 -12 3 -34 -3 -52 -15z"/>
 <path d="M7510 8173 c-84 -31 -75 -153 11 -153 15 0 31 -4 34 -10 3 -5 24 -10 45 -10 21 0 42 -4 45 -10 3 -5 24 -10 45 -10 21 0 42 -4 45 -10 3 -5 19 -10 36 -10 16 0 37 -4 47 -9 9 -5 37 -14 62 -21 25 -7 55 -16 68 -21 13 -5 33 -9 46 -9 12 0 26 -3 30 -7 13 -13 82 -33 117 -33 75 0 106 77 50 128 -28 27 -92 52 -130 52 -11 0 -23 5 -26 10 -3 6 -19 10 -35 10 -16 0 -32 5 -35 10 -3 6 -19 10 -35 10 -16 0 -32 5 -35 10 -3 6 -21 10 -40 10 -19 0 -37 5 -40 10 -3 6 -21 10 -40 10 -19 0 -37 5 -40 10 -3 6 -23 10 -44 10 -20 0 -41 4 -46 9 -6 5 -28 11 -50 13 -22 3 -47 7 -55 11 -8 3 -22 3 -30 0z"/>
 <path d="M13165 8127 c-29 -17 -39 -36 -48 -87 -4 -25 -12 -72 -18 -105 -6 -33 -13 -97 -15 -141 -5 -77 -4 -83 18 -98 12 -9 34 -16 48 -16 52 1 74 38 92 155 23 154 27 182 33 211 6 26 2 36 -25 62 -33 34 -53 38 -85 19z"/>
 <path d="M8548 7819 c-37 -27 -39 -85 -5 -117 37 -35 55 -28 82 32 31 68 31 80 0 94 -35 16 -45 15 -77 -9z"/>
 <path d="M8782 7670 c-12 -19 -22 -39 -22 -43 0 -18 25 0 38 27 21 42 8 55 -16 16z"/>
 <path d="M9101 7501 c-18 -14 -25 -29 -25 -54 0 -43 12 -57 87 -111 131 -91 149 -104 175 -128 15 -13 48 -38 75 -56 26 -18 47 -37 47 -42 0 -5 8 -11 18 -14 9 -4 39 -27 67 -52 64 -60 97 -76 127 -65 74 28 75 95 2 157 -25 21 -56 48 -68 59 -45 40 -73 61 -171 134 -55 41 -116 86 -135 101 -125 94 -155 105 -199 71z"/>
 <path d="M13025 7342 c-27 -22 -43 -57 -49 -109 -3 -24 -9 -61 -12 -84 -8 -51 9 -84 47 -98 56 -19 100 24 113 110 20 128 19 150 -5 175 -26 28 -65 31 -94 6z"/>
 <path d="M9960 6787 c-8 -7 -21 -23 -28 -36 -19 -33 2 -71 81 -149 61 -60 66 -63 107 -60 37 3 47 8 63 35 23 40 17 53 -78 151 -57 59 -75 72 -100 72 -16 0 -37 -6 -45 -13z"/>
 <path d="M12899 6717 c-21 -14 -35 -32 -37 -47 -2 -14 -7 -34 -11 -45 -13 -30 -31 -112 -31 -138 0 -13 -4 -27 -8 -32 -5 -6 -14 -37 -21 -70 -7 -33 -17 -69 -21 -80 -4 -11 -18 -58 -30 -105 -12 -47 -26 -93 -31 -102 -5 -10 -9 -35 -9 -56 0 -81 86 -112 134 -49 15 19 26 46 26 60 0 14 4 28 8 31 5 3 14 31 21 63 7 32 17 66 22 75 5 10 9 29 9 42 0 14 5 28 10 31 6 3 10 21 10 40 0 19 5 37 10 40 6 3 10 21 10 40 0 19 5 37 10 40 6 3 10 19 10 36 0 16 4 37 9 47 5 9 15 42 21 73 14 64 4 89 -45 115 -33 17 -26 18 -66 -9z"/>
 <path d="M10415 6328 c-29 -16 -55 -50 -55 -74 0 -19 20 -45 129 -169 49 -56 122 -139 174 -198 32 -36 67 -76 78 -90 54 -70 89 -97 122 -97 76 0 101 80 45 142 -18 20 -49 55 -68 78 -19 23 -48 56 -65 73 -29 30 -54 60 -149 170 -22 27 -53 62 -68 77 -15 16 -30 35 -35 43 -10 16 -68 57 -80 57 -4 0 -17 -6 -28 -12z"/>
 <path d="M12563 5638 c-33 -38 -87 -160 -87 -201 0 -30 5 -43 24 -58 51 -38 98 -14 136 70 14 31 31 66 37 79 6 13 11 39 11 59 0 65 -78 98 -121 51z"/>
 <path d="M11142 5482 c-13 -10 -25 -33 -29 -55 -5 -35 -2 -40 69 -113 71 -72 77 -77 118 -77 33 0 48 6 62 23 36 45 17 85 -85 178 -73 66 -96 74 -135 44z"/>
 <path d="M12185 5084 c-27 -19 -63 -41 -80 -49 -58 -26 -156 -39 -195 -26 -14 5 -45 14 -70 21 -25 7 -64 22 -88 33 -54 26 -105 27 -132 2 -23 -20 -26 -71 -7 -96 16 -21 156 -89 182 -89 12 0 27 -6 33 -12 17 -17 258 -16 274 0 7 7 20 12 30 12 22 0 152 77 184 109 28 28 33 91 8 115 -27 27 -83 19 -139 -20z"/>
 </g>
<g id="layer3" fill="#727272" stroke="none">
 <path d="M118 8583 c-17 -4 -18 -214 -18 -4233 0 -3542 2 -4229 14 -4239 10 -8 1795 -10 6817 -9 l6804 3 0 4240 0 4240 -6800 1 c-3740 1 -6808 0 -6817 -3z m13597 -4233 l0 -4225 -6797 -3 -6798 -2 0 4223 c0 2323 3 4227 7 4230 3 4 3062 6 6797 5 l6791 -3 0 -4225z"/>
 <path d="M9055 8319 c-166 -20 -256 -42 -354 -86 -82 -37 -168 -99 -175 -127 -10 -39 9 -73 43 -81 30 -6 40 -2 131 53 43 27 108 54 195 82 22 7 54 23 70 36 53 39 160 88 243 110 7 2 10 8 7 14 -7 11 -60 11 -160 -1z"/>
 <path d="M4875 8175 c6 -1 37 -9 70 -16 33 -7 79 -21 103 -31 70 -29 108 -24 130 19 17 30 3 33 -166 32 -81 0 -142 -2 -137 -4z"/>
 <path d="M5484 7738 c-15 -32 -14 -35 20 -108 62 -134 166 -420 190 -522 9 -38 33 -58 70 -58 38 0 66 26 66 59 0 13 -9 51 -20 85 -11 33 -31 95 -44 136 -48 146 -92 257 -146 365 -34 69 -36 70 -77 73 -40 3 -44 1 -59 -30z"/>
 <path d="M8209 7615 c-32 -18 -56 -72 -134 -310 -23 -71 -48 -150 -55 -175 -7 -25 -16 -56 -20 -70 -35 -113 -34 -111 -19 -139 12 -22 22 -26 58 -26 47 0 59 14 80 90 30 115 103 347 121 390 5 11 22 57 39 102 34 91 31 121 -16 142 -28 13 -22 13 -54 -4z"/>
 <path d="M5864 6525 c-14 -22 -15 -32 -5 -73 15 -56 28 -117 34 -152 6 -34 35 -176 47 -225 5 -22 14 -69 20 -105 26 -150 37 -170 94 -170 45 0 59 26 52 94 -3 34 -10 81 -15 106 -5 25 -14 70 -20 100 -6 30 -20 98 -31 150 -11 52 -25 118 -30 145 -27 141 -35 155 -91 155 -30 0 -42 -5 -55 -25z"/>
 <path d="M7847 6372 c-19 -21 -34 -81 -77 -307 -6 -33 -15 -80 -20 -105 -54 -284 -55 -296 -11 -319 58 -32 85 0 110 129 12 58 26 128 31 155 84 415 82 403 67 434 -16 34 -74 41 -100 13z"/>
 <path d="M6127 5289 c-27 -16 -37 -51 -27 -95 4 -22 13 -70 20 -109 6 -38 15 -92 20 -120 5 -27 14 -78 20 -112 5 -35 15 -91 20 -125 27 -157 30 -167 61 -183 26 -14 32 -14 60 1 l32 16 -7 71 c-3 40 -10 97 -15 127 -6 30 -15 84 -21 120 -25 151 -30 178 -40 235 -6 33 -14 78 -17 100 -3 23 -11 48 -18 58 -15 21 -64 31 -88 16z"/>
 <path d="M7610 5115 c-12 -14 -27 -85 -50 -225 -6 -41 -15 -95 -20 -120 -5 -25 -14 -79 -20 -120 -6 -41 -16 -94 -21 -117 -16 -76 -12 -130 13 -147 53 -37 102 -1 113 82 3 26 10 67 15 92 4 25 14 79 20 120 6 41 15 95 20 120 5 25 14 79 20 120 6 41 15 91 19 111 6 24 4 47 -5 68 -11 27 -18 31 -52 31 -22 0 -45 -6 -52 -15z"/>
 <path d="M6320 4006 c-8 -15 -10 -40 -7 -63 11 -70 26 -157 37 -218 6 -33 15 -85 20 -115 5 -30 13 -77 19 -105 5 -27 14 -79 21 -114 13 -75 23 -96 51 -112 15 -8 28 -8 50 1 45 19 47 42 20 193 -25 134 -32 175 -41 227 -5 30 -14 82 -20 115 -6 33 -15 85 -20 116 -13 85 -23 99 -74 99 -35 0 -45 -4 -56 -24z"/>
 <path d="M7393 3844 c-9 -14 -20 -49 -24 -78 -4 -28 -13 -77 -18 -108 -11 -56 -20 -107 -41 -225 -6 -32 -15 -80 -21 -108 -22 -113 -23 -174 -4 -195 22 -25 67 -26 88 -2 18 19 33 84 67 272 6 36 15 85 20 110 5 25 14 77 20 115 7 39 16 89 21 112 20 93 3 133 -59 133 -23 0 -36 -7 -49 -26z"/>
 <path d="M6589 2773 c-9 -2 -22 -15 -29 -29 -16 -28 -12 -46 62 -309 52 -185 133 -370 169 -383 10 -4 28 -23 41 -42 23 -33 27 -35 89 -38 l65 -3 53 55 c49 52 52 58 45 93 -4 21 -10 45 -14 53 -4 8 -11 33 -15 55 -4 22 -9 43 -12 48 -3 4 -21 -23 -40 -60 -68 -132 -89 -135 -148 -18 -37 75 -87 207 -107 282 -4 18 -12 48 -17 66 -32 111 -41 150 -41 168 0 43 -53 75 -101 62z"/>
 <path d="M7163 2614 c-14 -6 -11 -25 19 -158 23 -98 25 -98 54 12 21 78 18 118 -8 136 -22 16 -42 19 -65 10z"/>
 <path d="M5361 1736 c-13 -14 -21 -31 -18 -38 4 -9 6 -8 6 3 1 9 10 24 21 34 18 16 36 17 192 13 103 -4 145 -3 103 2 -38 4 -118 8 -176 9 -100 1 -107 0 -128 -23z"/>
 <path d="M5790 1730 c34 -11 60 -11 35 0 -11 5 -29 8 -40 8 -16 0 -15 -2 5 -8z"/>
 <path d="M5865 1710 c27 -12 43 -12 25 0 -8 5 -22 9 -30 9 -10 0 -8 -3 5 -9z"/>
 <path d="M5910 1696 c0 -2 16 -13 34 -24 19 -12 49 -40 65 -63 17 -23 31 -38 31 -32 0 17 -71 93 -101 109 -16 8 -29 13 -29 10z"/>
 <path d="M5340 1613 c0 -6 9 -18 21 -29 19 -17 38 -19 171 -19 86 0 135 3 116 7 -18 4 -86 7 -151 5 -114 -2 -119 -1 -138 22 -10 13 -19 19 -19 14z"/>
 <path d="M5735 1550 c27 -12 43 -12 25 0 -8 5 -22 9 -30 9 -10 0 -8 -3 5 -9z"/>
 <path d="M6048 1054 c3 -534 4 -526 -43 -544 -19 -9 -19 -9 2 -9 12 -1 29 9 37 21 14 20 16 84 15 513 0 269 -3 498 -7 507 -4 10 -6 -210 -4 -488z"/>
 <path d="M5810 1514 c14 -16 26 -31 28 -33 1 -2 2 3 2 11 0 9 -12 24 -27 33 l-28 18 25 -29z"/>
 <path d="M1970 1470 c-20 -6 -21 -8 -5 -8 11 0 34 4 50 8 27 7 27 8 5 8 -14 0 -36 -4 -50 -8z"/>
 <path d="M2625 1469 c22 -4 49 -8 60 -7 16 0 15 2 -5 8 -14 4 -41 8 -60 8 l-35 0 40 -9z"/>
 <path d="M3415 1470 l-20 -9 20 1 c11 0 31 4 45 8 l25 8 -25 0 c-14 0 -34 -3 -45 -8z"/>
 <path d="M4211 1476 c2 -2 27 -6 54 -9 34 -4 42 -3 25 3 -25 8 -87 13 -79 6z"/>
 <path d="M5055 1471 c-39 -6 682 -3 740 3 17 1 -134 3 -335 3 -201 0 -383 -3 -405 -6z"/>
 <path d="M6495 1470 c-13 -6 -1 -7 35 -3 30 3 57 7 59 9 9 8 -75 2 -94 -6z"/>
 <path d="M6881 1473 c9 -2 21 -14 27 -26 7 -15 11 -17 11 -6 1 20 -19 39 -38 38 -14 -1 -14 -2 0 -6z"/>
 <path d="M7649 1463 c-13 -16 -12 -17 4 -4 16 13 21 21 13 21 -2 0 -10 -8 -17 -17z"/>
 <path d="M8570 1470 c14 -4 36 -8 50 -8 l25 0 -25 8 c-14 4 -36 8 -50 8 l-25 0 25 -8z"/>
 <path d="M9007 1462 c-15 -17 -17 -73 -17 -601 0 -572 3 -621 32 -621 6 0 4 8 -5 18 -15 17 -17 73 -17 602 0 529 2 585 17 602 9 10 14 18 11 18 -3 0 -12 -8 -21 -18z"/>
 <path d="M10170 1470 c34 -11 60 -11 35 0 -11 5 -29 8 -40 8 -16 0 -15 -2 5 -8z"/>
 <path d="M10676 1455 c-14 -22 -16 -87 -16 -597 0 -503 2 -576 16 -596 8 -12 19 -22 25 -22 5 0 0 9 -11 20 -20 20 -20 33 -20 594 0 565 0 574 21 600 11 14 16 26 11 26 -5 0 -17 -11 -26 -25z"/>
 <path d="M10849 1467 c36 -18 41 -53 40 -245 -1 -95 1 -176 5 -179 3 -4 6 82 6 189 0 182 -1 197 -21 222 -11 14 -28 26 -37 26 -12 0 -10 -4 7 -13z"/>
 <path d="M1890 1450 c-18 -12 -2 -12 25 0 13 6 15 9 5 9 -8 0 -22 -4 -30 -9z"/>
 <path d="M2745 1450 c27 -12 43 -12 25 0 -8 5 -22 9 -30 9 -10 0 -8 -3 5 -9z"/>
 <path d="M3350 1450 c-18 -12 -2 -12 25 0 13 6 15 9 5 9 -8 0 -22 -4 -30 -9z"/>
 <path d="M4345 1450 c27 -12 43 -12 25 0 -8 5 -22 9 -30 9 -10 0 -8 -3 5 -9z"/>
 <path d="M4940 1450 c-13 -9 -13 -10 0 -10 8 0 22 5 30 10 13 9 13 10 0 10 -8 0 -22 -5 -30 -10z"/>
 <path d="M6383 1444 c-18 -8 -33 -16 -33 -18 0 -5 91 24 99 30 11 10 -38 1 -66 -12z"/>
 <path d="M8716 1431 c68 -32 95 -56 124 -115 11 -23 20 -35 20 -27 0 28 -50 98 -87 122 -45 29 -89 49 -106 49 -7 -1 15 -14 49 -29z"/>
 <path d="M10260 1450 c8 -5 20 -10 25 -10 6 0 3 5 -5 10 -8 5 -19 10 -25 10 -5 0 -3 -5 5 -10z"/>
 <path d="M1830 1430 c-18 -12 -2 -12 25 0 13 6 15 9 5 9 -8 0 -22 -4 -30 -9z"/>
 <path d="M2840 1410 c62 -34 93 -66 120 -125 10 -22 19 -33 19 -24 1 22 -52 102 -85 128 -27 21 -88 51 -103 51 -3 0 19 -14 49 -30z"/>
 <path d="M3295 1430 c-8 -13 5 -13 25 0 13 8 13 10 -2 10 -9 0 -20 -4 -23 -10z"/>
 <path d="M4395 1430 c3 -5 11 -10 16 -10 6 0 7 5 4 10 -3 6 -11 10 -16 10 -6 0 -7 -4 -4 -10z"/>
 <path d="M4880 1430 c-8 -5 -10 -10 -5 -10 6 0 17 5 25 10 8 5 11 10 5 10 -5 0 -17 -5 -25 -10z"/>
 <path d="M7633 1395 c0 -27 2 -38 4 -22 2 15 2 37 0 50 -2 12 -4 0 -4 -28z"/>
 <path d="M10320 1430 c8 -5 20 -10 25 -10 6 0 3 5 -5 10 -8 5 -19 10 -25 10 -5 0 -3 -5 5 -10z"/>
 <path d="M1768 1404 c-39 -21 -35 -28 5 -8 37 19 44 24 31 24 -5 -1 -21 -8 -36 -16z"/>
 <path d="M3230 1396 c-19 -13 -44 -34 -55 -47 l-20 -24 27 24 c15 13 44 34 65 47 21 13 34 23 28 23 -5 0 -26 -11 -45 -23z"/>
 <path d="M4464 1385 c21 -21 47 -57 57 -79 10 -23 19 -35 19 -27 0 26 -49 99 -83 122 -30 21 -30 20 7 -16z"/>
 <path d="M4815 1397 c-50 -36 -95 -93 -95 -119 1 -7 10 3 20 23 11 21 41 55 67 78 52 44 56 53 8 18z"/>
 <path d="M6265 1366 c-51 -51 -86 -110 -85 -145 1 -9 9 5 19 30 23 59 57 104 105 140 22 16 34 29 27 29 -7 0 -36 -24 -66 -54z"/>
 <path d="M10370 1410 c35 -24 54 -31 30 -11 -14 11 -29 21 -35 21 -5 0 -3 -5 5 -10z"/>
 <path d="M1698 1357 c-33 -28 -78 -95 -78 -116 1 -9 8 0 16 19 8 19 34 54 57 78 45 46 47 55 5 19z"/>
 <path d="M10456 1350 c16 -20 37 -47 46 -60 9 -14 17 -20 17 -13 1 6 -20 33 -45 60 -25 26 -33 32 -18 13z"/>
 <path d="M6892 1328 c-13 -15 -19 -28 -14 -28 13 0 45 37 41 48 -2 5 -14 -4 -27 -20z"/>
 <path d="M7640 1333 c0 -9 40 -36 45 -31 2 2 -8 11 -21 21 -13 10 -24 14 -24 10z"/>
 <path d="M3135 1289 c-9 -17 -15 -37 -13 -45 2 -8 10 5 19 30 19 53 16 59 -6 15z"/>
 <path d="M2015 1290 l-20 -9 20 1 c11 0 31 4 45 8 l25 8 -25 0 c-14 0 -34 -3 -45 -8z"/>
 <path d="M2611 1296 c2 -2 22 -6 44 -9 28 -5 34 -4 20 3 -19 8 -73 14 -64 6z"/>
 <path d="M3460 1290 c-13 -9 -13 -10 0 -9 8 0 24 4 35 9 l20 9 -20 0 c-11 0 -27 -4 -35 -9z"/>
 <path d="M4215 1290 c27 -12 43 -12 25 0 -8 5 -22 9 -30 9 -10 0 -8 -3 5 -9z"/>
 <path d="M5078 1292 c-10 -4 158 -7 372 -7 215 0 390 3 390 8 0 9 -739 8 -762 -1z"/>
 <path d="M6585 1289 c-13 -6 -4 -7 30 -3 28 4 52 8 54 10 9 8 -65 2 -84 -7z"/>
 <path d="M8535 1290 c27 -12 43 -12 25 0 -8 5 -22 9 -30 9 -10 0 -8 -3 5 -9z"/>
 <path d="M9216 1284 c-9 -23 -7 -852 2 -857 4 -3 7 189 7 426 l0 432 462 0 c254 0 455 3 445 7 -9 4 -218 7 -463 7 -399 1 -448 -1 -453 -15z"/>
 <path d="M1935 1270 c-8 -13 5 -13 25 0 13 8 13 10 -2 10 -9 0 -20 -4 -23 -10z"/>
 <path d="M2722 1258 c15 -12 32 -35 37 -49 5 -14 9 -117 8 -228 l-2 -203 -35 -29 c-19 -16 -30 -29 -24 -29 6 0 23 14 40 31 l29 30 3 207 c2 191 1 209 -17 239 -11 17 -30 37 -43 43 -20 10 -19 8 4 -12z"/>
 <path d="M3373 1257 c-40 -27 -45 -41 -45 -129 0 -63 3 -73 28 -99 15 -16 32 -29 37 -29 5 0 -5 12 -22 26 -30 25 -31 28 -31 108 0 90 4 97 65 129 17 9 23 16 15 16 -8 0 -30 -10 -47 -22z"/>
 <path d="M4290 1258 c13 -15 30 -41 36 -60 9 -24 13 -27 13 -12 1 25 -38 85 -59 92 -9 3 -4 -6 10 -20z"/>
 <path d="M5000 1270 c-8 -5 -10 -10 -5 -10 6 0 17 5 25 10 8 5 11 10 5 10 -5 0 -17 -5 -25 -10z"/>
 <path d="M6515 1270 c-3 -6 1 -7 9 -4 18 7 21 14 7 14 -6 0 -13 -4 -16 -10z"/>
 <path d="M10180 1270 c20 -13 33 -13 25 0 -3 6 -14 10 -23 10 -15 0 -15 -2 -2 -10z"/>
 <path d="M8864 1180 c0 -52 1 -74 3 -47 2 26 2 68 0 95 -2 26 -3 4 -3 -48z"/>
 <path d="M1890 1250 c-9 -6 -10 -10 -3 -10 6 0 15 5 18 10 8 12 4 12 -15 0z"/>
 <path d="M4545 995 c0 -147 3 -250 7 -229 4 21 7 125 7 229 0 105 -3 208 -7 229 -4 21 -7 -82 -7 -229z"/>
 <path d="M4712 899 c-2 -350 -1 -367 17 -383 11 -10 28 -16 38 -13 15 4 15 5 -3 6 -12 0 -27 7 -33 14 -7 9 -12 130 -14 378 l-2 364 -3 -366z"/>
 <path d="M4941 1234 c-12 -15 -21 -34 -20 -43 0 -9 4 -6 10 9 5 14 20 33 32 42 12 10 17 18 10 18 -6 0 -21 -12 -32 -26z"/>
 <path d="M6449 1223 l-34 -38 35 30 c19 16 39 33 45 37 5 5 5 8 -1 8 -6 0 -26 -17 -45 -37z"/>
 <path d="M8620 1253 c0 -6 5 -15 10 -18 6 -3 10 -26 10 -50 0 -33 -6 -50 -22 -65 -12 -11 -17 -20 -10 -20 36 0 57 107 27 146 -8 10 -15 14 -15 7z"/>
 <path d="M10254 1239 c15 -12 37 -36 47 -53 10 -17 19 -25 19 -18 0 23 -32 63 -64 78 l-31 15 29 -22z"/>
 <path d="M10526 1235 c8 -37 14 -45 14 -19 0 10 -5 26 -10 34 -8 11 -9 7 -4 -15z"/>
 <path d="M1849 1223 c-13 -16 -12 -17 4 -4 16 13 21 21 13 21 -2 0 -10 -8 -17 -17z"/>
 <path d="M2984 1000 c0 -124 2 -174 3 -112 2 61 2 163 0 225 -1 61 -3 11 -3 -113z"/>
 <path d="M1615 750 c0 -250 1 -353 2 -228 2 126 2 330 0 455 -1 126 -2 23 -2 -227z"/>
 <path d="M1832 1190 c-6 -36 -3 -477 3 -492 7 -17 33 -18 364 -17 196 1 366 4 379 7 13 4 -147 7 -355 7 l-378 0 -5 255 c-3 140 -7 248 -8 240z"/>
 <path d="M6406 1165 c-3 -9 -6 -24 -5 -33 0 -9 5 -4 10 12 9 32 6 48 -5 21z"/>
 <path d="M6962 1093 l538 -3 16 -25 c14 -21 15 -51 12 -199 -1 -96 0 -169 4 -163 4 7 8 89 8 182 0 138 -3 175 -16 193 l-15 22 -542 -2 -542 -3 537 -2z"/>
 <path d="M8560 1090 c-8 -5 -10 -10 -5 -10 6 0 17 5 25 10 8 5 11 10 5 10 -5 0 -17 -5 -25 -10z"/>
 <path d="M7950 1071 c-34 -6 475 -3 535 3 17 1 -89 3 -235 3 -146 0 -281 -2 -300 -6z"/>
 <path d="M8846 1057 c-3 -15 -28 -49 -54 -75 -44 -44 -35 -42 16 3 28 24 55 72 49 88 -2 7 -7 -1 -11 -16z"/>
 <path d="M4330 1016 c0 -26 -5 -46 -12 -49 -8 -3 -6 -6 5 -6 14 -1 17 8 17 49 0 28 -2 50 -5 50 -3 0 -5 -20 -5 -44z"/>
 <path d="M7840 1050 c-13 -9 -13 -10 0 -10 8 0 22 5 30 10 13 9 13 10 0 10 -8 0 -22 -5 -30 -10z"/>
 <path d="M7780 1030 c-8 -5 -10 -10 -5 -10 6 0 17 5 25 10 8 5 11 10 5 10 -5 0 -17 -5 -25 -10z"/>
 <path d="M10975 1033 c153 -6 885 -8 863 -1 -13 3 -228 6 -478 5 -250 -1 -423 -2 -385 -4z"/>
 <path d="M3121 1017 c-2 -45 68 -136 124 -163 17 -8 21 -9 11 -2 -55 37 -97 84 -115 131 -11 29 -20 44 -20 34z"/>
 <path d="M7691 972 c-34 -34 -51 -61 -59 -94 -13 -50 -15 -152 -4 -180 4 -10 7 26 7 80 0 112 17 153 87 210 22 17 35 32 29 32 -7 0 -33 -21 -60 -48z"/>
 <path d="M11905 1010 c11 -5 27 -9 35 -9 13 -1 13 0 0 9 -8 5 -24 9 -35 9 l-20 0 20 -9z"/>
 <path d="M3415 990 c3 -5 14 -10 23 -10 15 0 15 2 2 10 -20 13 -33 13 -25 0z"/>
 <path d="M11980 990 c20 -13 33 -13 25 0 -3 6 -14 10 -23 10 -15 0 -15 -2 -2 -10z"/>
 <path d="M3488 968 c9 -4 195 -6 412 -5 217 1 355 2 305 4 -209 7 -733 7 -717 1z"/>
 <path d="M12030 976 c0 -2 7 -7 16 -10 8 -3 12 -2 9 4 -6 10 -25 14 -25 6z"/>
 <path d="M12114 919 c84 -74 91 -97 91 -301 0 -97 4 -170 8 -162 5 8 7 88 5 177 -2 135 -6 168 -22 200 -20 41 -100 127 -118 127 -6 0 10 -19 36 -41z"/>
 <path d="M8710 930 c-8 -5 -10 -10 -5 -10 6 0 17 5 25 10 8 5 11 10 5 10 -5 0 -17 -5 -25 -10z"/>
 <path d="M6401 906 c-7 -9 -11 -37 -8 -73 l3 -58 2 61 c2 46 6 63 18 68 20 8 868 8 888 0 12 -5 16 -21 16 -69 0 -58 -2 -65 -31 -89 -17 -14 -26 -26 -21 -26 5 0 21 11 36 25 23 21 26 32 26 88 0 36 -5 68 -12 75 -9 9 -125 12 -459 12 -373 0 -448 -2 -458 -14z"/>
 <path d="M8635 910 c-13 -5 -14 -9 -5 -9 8 0 24 4 35 9 13 5 14 9 5 9 -8 0 -24 -4 -35 -9z"/>
 <path d="M8002 892 c-22 -7 459 -5 543 1 22 2 -86 4 -240 4 -154 1 -290 -2 -303 -5z"/>
 <path d="M7880 858 c-19 -13 -35 -30 -37 -38 -3 -9 0 -8 7 3 7 10 31 27 53 37 23 10 35 19 26 19 -9 1 -31 -9 -49 -21z"/>
 <path d="M10895 843 c-5 -14 -8 -216 -5 -410 0 -7 3 -13 8 -13 4 0 7 96 7 212 l0 213 453 0 c249 0 443 3 430 7 -13 3 -217 6 -454 7 -403 1 -432 0 -439 -16z"/>
 <path d="M3298 828 c5 -5 16 -8 23 -6 8 3 3 7 -10 11 -17 4 -21 3 -13 -5z"/>
 <path d="M11850 830 c8 -5 22 -10 30 -10 13 0 13 1 0 10 -8 5 -22 10 -30 10 -13 0 -13 -1 0 -10z"/>
 <path d="M3350 810 c8 -5 22 -9 30 -9 10 0 8 3 -5 9 -27 12 -43 12 -25 0z"/>
 <path d="M11900 816 c0 -2 7 -7 16 -10 8 -3 12 -2 9 4 -6 10 -25 14 -25 6z"/>
 <path d="M3432 788 c13 -3 217 -6 453 -5 237 1 394 2 350 4 -178 6 -825 8 -803 1z"/>
 <path d="M11940 796 c0 -4 8 -16 19 -27 20 -21 31 -86 31 -181 0 -76 -12 -103 -57 -127 -21 -11 -34 -20 -30 -21 17 0 67 31 81 52 21 29 22 204 3 251 -13 29 -47 68 -47 53z"/>
 <path d="M4321 771 c-1 -8 -9 -24 -18 -35 -16 -20 -16 -20 6 0 13 12 21 28 18 35 -4 11 -6 11 -6 0z"/>
 <path d="M6180 759 c0 -13 5 -31 10 -39 7 -11 8 -5 4 20 -8 43 -14 51 -14 19z"/>
 <path d="M6415 751 c19 -22 66 -51 82 -51 4 1 -5 8 -22 17 -16 8 -41 25 -55 37 l-25 21 20 -24z"/>
 <path d="M7840 737 c0 -11 39 -43 44 -35 1 2 -8 13 -21 25 -13 12 -23 17 -23 10z"/>
 <path d="M2965 717 c-4 -16 -23 -50 -43 -75 -20 -27 -26 -39 -12 -27 30 27 73 102 67 117 -2 7 -8 0 -12 -15z"/>
 <path d="M2645 710 c-13 -5 -14 -9 -5 -9 8 0 24 4 35 9 13 5 14 9 5 9 -8 0 -24 -4 -35 -9z"/>
 <path d="M4250 710 c-8 -5 -10 -10 -5 -10 6 0 17 5 25 10 8 5 11 10 5 10 -5 0 -17 -5 -25 -10z"/>
 <path d="M4526 704 c-4 -9 -4 -19 -1 -22 2 -3 7 3 11 12 4 9 4 19 1 22 -2 3 -7 -3 -11 -12z"/>
 <path d="M7215 710 c-13 -6 -15 -9 -5 -9 8 0 22 4 30 9 18 12 2 12 -25 0z"/>
 <path d="M4170 690 c-20 -6 -21 -8 -5 -8 11 0 29 3 40 8 25 11 -1 11 -35 0z"/>
 <path d="M6200 696 c0 -16 49 -74 82 -97 30 -20 28 -17 -10 22 -23 24 -49 53 -57 64 -8 11 -15 16 -15 11z"/>
 <path d="M6555 690 c17 -4 48 -8 70 -8 l40 1 -45 8 c-25 4 -56 7 -70 7 -23 0 -22 -1 5 -8z"/>
 <path d="M7085 690 l-30 -8 30 0 c17 0 41 4 55 8 l25 8 -25 0 c-14 0 -38 -4 -55 -8z"/>
 <path d="M7910 691 c8 -6 28 -11 44 -11 39 0 31 6 -19 14 -29 5 -36 4 -25 -3z"/>
 <path d="M3854 655 c-9 -13 -14 -30 -11 -37 4 -8 6 -6 6 5 1 9 10 26 21 37 11 11 16 20 10 20 -5 0 -17 -11 -26 -25z"/>
 <path d="M6828 673 c6 -2 18 -2 25 0 6 3 1 5 -13 5 -14 0 -19 -2 -12 -5z"/>
 <path d="M6908 673 c6 -2 18 -2 25 0 6 3 1 5 -13 5 -14 0 -19 -2 -12 -5z"/>
 <path d="M7495 649 c-11 -17 -38 -43 -59 -60 -45 -33 -40 -40 5 -8 31 22 85 87 78 94 -3 2 -13 -10 -24 -26z"/>
 <path d="M8304 663 c33 -40 22 -137 -17 -153 -17 -7 -18 -9 -5 -9 26 -1 51 44 52 94 1 35 -4 49 -24 67 -24 23 -24 23 -6 1z"/>
 <path d="M4470 624 c-33 -34 -37 -42 -17 -29 23 15 75 75 65 75 -2 0 -24 -21 -48 -46z"/>
 <path d="M7640 662 c0 -7 15 -27 33 -45 17 -18 22 -21 11 -7 -12 14 -26 34 -32 45 -6 11 -12 14 -12 7z"/>
 <path d="M2865 590 c-3 -5 -1 -10 4 -10 6 0 11 5 11 10 0 6 -2 10 -4 10 -3 0 -8 -4 -11 -10z"/>
 <path d="M2830 570 c-9 -6 -10 -10 -3 -10 6 0 15 5 18 10 8 12 4 12 -15 0z"/>
 <path d="M4400 570 c-9 -6 -10 -10 -3 -10 6 0 15 5 18 10 8 12 4 12 -15 0z"/>
 <path d="M6325 570 c3 -5 11 -10 16 -10 6 0 7 5 4 10 -3 6 -11 10 -16 10 -6 0 -7 -4 -4 -10z"/>
 <path d="M7720 575 c0 -7 61 -37 66 -33 2 3 -12 12 -31 21 -19 9 -35 15 -35 12z"/>
 <path d="M5841 554 c-1 -11 7 -28 17 -37 27 -25 39 -20 15 6 -11 12 -23 29 -26 37 -4 10 -6 9 -6 -6z"/>
 <path d="M2775 550 c-8 -13 5 -13 25 0 13 8 13 10 -2 10 -9 0 -20 -4 -23 -10z"/>
 <path d="M4350 550 c-8 -5 -10 -10 -5 -10 6 0 17 5 25 10 8 5 11 10 5 10 -5 0 -17 -5 -25 -10z"/>
 <path d="M6370 550 c8 -5 22 -9 30 -9 10 0 8 3 -5 9 -27 12 -43 12 -25 0z"/>
 <path d="M7360 550 c-8 -5 -10 -10 -5 -10 6 0 17 5 25 10 8 5 11 10 5 10 -5 0 -17 -5 -25 -10z"/>
 <path d="M3840 541 c0 -10 39 -46 43 -40 2 2 -7 14 -20 26 -13 12 -23 19 -23 14z"/>
 <path d="M4893 523 c-25 -25 -18 -30 11 -8 10 7 16 17 15 22 -2 4 -14 -2 -26 -14z"/>
 <path d="M2695 530 l-20 -9 20 0 c11 0 27 4 35 9 13 9 13 10 0 9 -8 0 -24 -4 -35 -9z"/>
 <path d="M4275 530 c-13 -5 -14 -9 -5 -9 8 0 24 4 35 9 13 5 14 9 5 9 -8 0 -24 -4 -35 -9z"/>
 <path d="M6430 530 c8 -5 22 -10 30 -10 13 0 13 1 0 10 -8 5 -22 10 -30 10 -13 0 -13 -1 0 -10z"/>
 <path d="M7305 530 c-13 -6 -15 -9 -5 -9 8 0 22 4 30 9 18 12 2 12 -25 0z"/>
 <path d="M7820 530 c8 -5 24 -9 35 -9 l20 0 -20 9 c-11 5 -27 9 -35 9 -13 1 -13 0 0 -9z"/>
 <path d="M10310 532 c0 -6 -15 -25 -32 -42 -31 -30 -31 -31 -5 -15 29 19 53 53 43 63 -3 3 -6 0 -6 -6z"/>
 <path d="M1848 508 c-13 -10 -17 -36 -20 -120 -3 -87 -7 -110 -22 -127 -12 -13 -14 -21 -7 -21 24 0 41 68 41 165 l0 95 348 1 c191 0 370 4 397 8 28 5 -118 9 -335 10 -298 1 -389 -2 -402 -11z"/>
 <path d="M4095 510 l-60 -7 60 0 c33 0 74 3 90 7 l30 8 -30 -1 c-16 0 -57 -3 -90 -7z"/>
 <path d="M6515 510 c11 -5 34 -8 50 -8 l30 0 -30 8 c-16 4 -39 8 -50 8 l-20 1 20 -9z"/>
 <path d="M7215 510 l-30 -8 30 -1 c17 0 37 4 45 9 13 9 13 10 0 9 -8 -1 -28 -5 -45 -9z"/>
 <path d="M7925 510 c30 -8 182 -13 174 -6 -2 2 -49 6 -104 9 -56 3 -87 2 -70 -3z"/>
 <path d="M10522 455 c-10 -37 -26 -62 -66 -102 -29 -29 -50 -53 -47 -53 13 0 99 96 116 128 9 18 15 43 13 55 -2 14 -7 4 -16 -28z"/>
 <path d="M10210 450 c-8 -5 -10 -10 -5 -10 6 0 17 5 25 10 8 5 11 10 5 10 -5 0 -17 -5 -25 -10z"/>
 <path d="M10120 430 l-25 -8 25 -1 c14 0 32 4 40 9 13 9 13 10 0 9 -8 -1 -26 -5 -40 -9z"/>
 <path d="M11815 430 c-27 -7 -28 -8 -5 -8 14 0 34 3 45 8 25 11 2 11 -40 0z"/>
 <path d="M12161 381 c-19 -25 -27 -40 -17 -32 20 17 60 71 55 75 -2 2 -19 -18 -38 -43z"/>
 <path d="M12062 313 c-29 -14 -51 -27 -49 -30 6 -5 95 36 103 48 7 11 9 12 -54 -18z"/>
 <path d="M10365 290 c-16 -7 -17 -9 -3 -9 9 -1 20 4 23 9 7 11 7 11 -20 0z"/>
 <path d="M1620 271 c0 -10 29 -36 34 -30 1 2 -6 12 -16 22 -10 9 -18 13 -18 8z"/>
 <path d="M10305 270 c-13 -6 -15 -9 -5 -9 8 0 22 4 30 9 18 12 2 12 -25 0z"/>
 <path d="M11950 270 c-13 -9 -13 -10 0 -10 8 0 22 5 30 10 13 9 13 10 0 10 -8 0 -22 -5 -30 -10z"/>
 <path d="M10210 250 l-25 -8 25 0 c14 0 34 3 45 8 l20 9 -20 -1 c-11 0 -31 -4 -45 -8z"/>
 <path d="M11860 250 l-25 -8 25 0 c14 0 34 3 45 8 l20 9 -20 -1 c-11 0 -31 -4 -45 -8z"/>
 <path d="M1723 233 c9 -2 25 -2 35 0 9 3 1 5 -18 5 -19 0 -27 -2 -17 -5z"/>
 <path d="M9303 233 c147 -2 387 -2 535 0 147 1 26 2 -268 2 -294 0 -415 -1 -267 -2z"/>
 <path d="M10978 233 c144 -2 380 -2 525 0 144 1 26 2 -263 2 -289 0 -407 -1 -262 -2z"/>
 </g>
<g id="layer4" fill="#a9a4a4" stroke="none">
 <path d="M107 8593 c-3 -5 3062 -8 6811 -8 l6817 0 0 -4242 c0 -2332 3 -4239 8 -4236 8 5 10 8454 1 8477 -6 15 -616 16 -6819 16 -3748 0 -6816 -3 -6818 -7z"/>
 <path d="M127 8573 c-4 -3 -7 -1907 -7 -4230 l0 -4223 6798 2 6797 3 0 4225 0 4225 -6791 3 c-3735 1 -6794 -1 -6797 -5z m13583 -4228 l0 -4215 -6787 2 -6788 3 -3 4200 c-1 2310 0 4206 3 4213 3 9 1371 12 6790 12 l6785 0 0 -4215z"/>
 <path d="M630 8350 c0 -6 40 -10 100 -10 60 0 100 4 100 10 0 6 -40 10 -100 10 -60 0 -100 -4 -100 -10z"/>
 <path d="M1270 8348 c0 -5 153 -8 340 -8 187 0 340 3 340 8 0 4 -153 7 -340 7 -187 0 -340 -3 -340 -7z"/>
 <path d="M2390 8350 c0 -6 40 -10 100 -10 60 0 100 4 100 10 0 6 -40 10 -100 10 -60 0 -100 -4 -100 -10z"/>
 <path d="M3110 8350 c-36 -4 85 -7 268 -8 216 -1 332 1 332 8 0 11 -490 11 -600 0z"/>
 <path d="M5270 8331 c0 -4 36 -12 80 -15 44 -4 94 -11 111 -16 18 -5 38 -6 46 -2 11 7 10 12 -7 27 -18 16 -23 17 -30 5 -7 -12 -20 -12 -80 -2 -83 14 -120 15 -120 3z"/>
 <path d="M8970 8325 c-85 -13 -210 -44 -225 -55 -5 -3 -26 -13 -45 -20 -61 -23 -170 -100 -186 -132 -20 -38 -4 -82 37 -103 40 -21 49 -19 118 25 76 50 186 100 217 100 8 0 42 19 76 41 62 43 161 91 213 104 17 4 24 10 17 12 -24 9 -192 -69 -242 -112 -8 -7 -33 -18 -55 -25 -84 -27 -152 -55 -195 -82 -25 -15 -58 -35 -73 -43 -38 -22 -85 -11 -98 22 -16 42 0 71 61 113 128 87 254 126 487 151 111 11 150 8 138 -11 -3 -5 0 -10 8 -10 21 0 28 12 16 27 -14 16 -160 16 -269 -2z"/>
 <path d="M6043 8323 c9 -2 25 -2 35 0 9 3 1 5 -18 5 -19 0 -27 -2 -17 -5z"/>
 <path d="M565 8288 c-4 -10 -4 -26 0 -35 8 -17 8 -17 12 0 3 9 3 25 0 35 -4 16 -4 16 -12 0z"/>
 <path d="M6150 8285 c7 -8 10 -32 8 -55 -4 -46 -1 -50 12 -15 10 27 -5 85 -22 85 -6 0 -5 -6 2 -15z"/>
 <path d="M6630 8290 c0 -5 9 -10 21 -10 11 0 17 5 14 10 -3 6 -13 10 -21 10 -8 0 -14 -4 -14 -10z"/>
 <path d="M6515 8280 c-3 -6 1 -7 9 -4 18 7 21 14 7 14 -6 0 -13 -4 -16 -10z"/>
 <path d="M6728 8283 c7 -3 16 -2 19 1 4 3 -2 6 -13 5 -11 0 -14 -3 -6 -6z"/>
 <path d="M6895 8270 c3 -5 11 -10 16 -10 6 0 7 5 4 10 -3 6 -11 10 -16 10 -6 0 -7 -4 -4 -10z"/>
 <path d="M5847 8263 c-10 -15 18 -83 34 -83 8 0 7 6 -4 18 -8 9 -17 31 -19 47 -2 19 -6 26 -11 18z"/>
 <path d="M6938 8263 c7 -3 16 -2 19 1 4 3 -2 6 -13 5 -11 0 -14 -3 -6 -6z"/>
 <path d="M7040 8252 c0 -5 14 -12 30 -14 33 -5 28 6 -7 17 -13 3 -23 2 -23 -3z"/>
 <path d="M6483 8224 c-3 -8 -1 -20 6 -27 8 -8 11 -4 11 16 0 30 -7 35 -17 11z"/>
 <path d="M7118 8178 c4 -52 -15 -75 -68 -80 -27 -3 -31 -6 -17 -12 26 -12 76 12 92 45 18 34 19 50 2 72 -10 15 -12 11 -9 -25z"/>
 <path d="M620 8190 c0 -6 42 -10 105 -10 63 0 105 4 105 10 0 6 -42 10 -105 10 -63 0 -105 -4 -105 -10z"/>
 <path d="M1270 8190 c0 -6 120 -10 340 -10 220 0 340 4 340 10 0 6 -120 10 -340 10 -220 0 -340 -4 -340 -10z"/>
 <path d="M2390 8190 c0 -6 40 -10 100 -10 60 0 100 4 100 10 0 6 -40 10 -100 10 -60 0 -100 -4 -100 -10z"/>
 <path d="M3045 8190 c4 -6 127 -10 335 -10 208 0 331 4 335 10 4 7 -110 10 -335 10 -225 0 -339 -3 -335 -10z"/>
 <path d="M4160 8190 c0 -6 37 -10 90 -10 53 0 90 4 90 10 0 6 -37 10 -90 10 -53 0 -90 -4 -90 -10z"/>
 <path d="M4766 8191 c-9 -13 33 -31 74 -31 37 0 139 -24 214 -50 67 -24 108 -20 131 13 21 31 19 54 -7 61 -45 13 -405 20 -412 7z m408 -17 c13 -5 13 -10 4 -27 -22 -43 -60 -48 -130 -19 -24 10 -70 24 -103 31 -33 7 -64 15 -70 16 -5 2 56 4 137 4 80 1 153 -2 162 -5z"/>
 <path d="M6115 8170 c-3 -5 -2 -10 4 -10 5 0 13 5 16 10 3 6 2 10 -4 10 -5 0 -13 -4 -16 -10z"/>
 <path d="M7555 8170 c3 -5 18 -10 32 -10 32 0 28 5 -10 14 -19 4 -26 3 -22 -4z"/>
 <path d="M7460 8149 c0 -5 5 -7 10 -4 6 3 10 8 10 11 0 2 -4 4 -10 4 -5 0 -10 -5 -10 -11z"/>
 <path d="M7645 8150 c3 -5 11 -10 16 -10 6 0 7 5 4 10 -3 6 -11 10 -16 10 -6 0 -7 -4 -4 -10z"/>
 <path d="M6605 8130 c3 -5 15 -10 26 -10 11 0 17 5 14 10 -3 6 -15 10 -26 10 -11 0 -17 -4 -14 -10z"/>
 <path d="M7735 8130 c3 -5 16 -10 28 -9 21 0 21 1 2 9 -28 12 -37 12 -30 0z"/>
 <path d="M13155 8130 c-3 -5 -2 -10 4 -10 5 0 13 5 16 10 3 6 2 10 -4 10 -5 0 -13 -4 -16 -10z"/>
 <path d="M13248 8112 c9 -10 19 -17 21 -16 6 5 -20 34 -30 34 -5 0 -1 -8 9 -18z"/>
 <path d="M6768 8113 c6 -2 18 -2 25 0 6 3 1 5 -13 5 -14 0 -19 -2 -12 -5z"/>
 <path d="M6835 8110 c3 -5 11 -10 16 -10 6 0 7 5 4 10 -3 6 -11 10 -16 10 -6 0 -7 -4 -4 -10z"/>
 <path d="M7815 8110 c3 -5 16 -10 28 -9 21 0 21 1 2 9 -28 12 -37 12 -30 0z"/>
 <path d="M6968 8093 c7 -3 16 -2 19 1 4 3 -2 6 -13 5 -11 0 -14 -3 -6 -6z"/>
 <path d="M7895 8090 c3 -5 16 -10 28 -9 21 0 21 1 2 9 -28 12 -37 12 -30 0z"/>
 <path d="M7965 8070 c3 -5 16 -10 28 -9 21 0 21 1 2 9 -28 12 -37 12 -30 0z"/>
 <path d="M8035 8050 c3 -5 16 -10 28 -9 21 0 21 1 2 9 -28 12 -37 12 -30 0z"/>
 <path d="M13107 8034 c-4 -4 -7 -14 -7 -23 0 -11 3 -12 11 -4 6 6 10 16 7 23 -2 6 -7 8 -11 4z"/>
 <path d="M7515 8010 c27 -12 35 -12 35 0 0 6 -12 10 -27 9 -25 0 -26 -1 -8 -9z"/>
 <path d="M13267 8014 c-4 -4 -7 -14 -7 -23 0 -11 3 -12 11 -4 6 6 10 16 7 23 -2 6 -7 8 -11 4z"/>
 <path d="M8170 8006 c0 -2 7 -7 16 -10 8 -3 12 -2 9 4 -6 10 -25 14 -25 6z"/>
 <path d="M7625 7990 c3 -5 11 -10 16 -10 6 0 7 5 4 10 -3 6 -11 10 -16 10 -6 0 -7 -4 -4 -10z"/>
 <path d="M7681 7976 c12 -10 60 -16 54 -6 -3 5 -18 10 -32 10 -15 0 -24 -2 -22 -4z"/>
 <path d="M8219 7938 c4 -28 6 -29 9 -9 2 13 0 27 -5 32 -6 6 -7 -3 -4 -23z"/>
 <path d="M7785 7950 c28 -12 37 -12 30 0 -3 6 -16 10 -28 9 -21 0 -21 -1 -2 -9z"/>
 <path d="M13091 7934 c0 -11 3 -14 6 -6 3 7 2 16 -1 19 -3 4 -6 -2 -5 -13z"/>
 <path d="M13087 7903 c-4 -3 -7 -11 -7 -17 0 -6 5 -5 12 2 6 6 9 14 7 17 -3 3 -9 2 -12 -2z"/>
 <path d="M8000 7890 c20 -13 33 -13 25 0 -3 6 -14 10 -23 10 -15 0 -15 -2 -2 -10z"/>
 <path d="M13247 7883 c-4 -3 -7 -11 -7 -17 0 -6 5 -5 12 2 6 6 9 14 7 17 -3 3 -9 2 -12 -2z"/>
 <path d="M8185 7870 c-3 -5 -1 -10 4 -10 6 0 11 5 11 10 0 6 -2 10 -4 10 -3 0 -8 -4 -11 -10z"/>
 <path d="M8535 7820 c-3 -6 1 -7 9 -4 18 7 21 14 7 14 -6 0 -13 -4 -16 -10z"/>
 <path d="M8650 7804 c0 -8 -11 -40 -25 -70 -17 -37 -31 -54 -43 -54 -25 0 -62 41 -62 69 0 12 -4 19 -10 16 -17 -11 15 -69 49 -88 30 -19 33 -19 51 -2 11 10 20 22 20 27 0 5 9 28 20 50 22 46 25 68 10 68 -5 0 -10 -7 -10 -16z"/>
 <path d="M5485 7765 c-30 -29 -32 -71 -7 -117 10 -18 26 -53 36 -78 10 -25 24 -58 31 -75 35 -80 135 -377 135 -400 0 -7 11 -24 25 -39 50 -54 138 -22 138 51 -1 50 -61 242 -133 423 -61 154 -98 227 -123 245 -32 22 -74 19 -102 -10z m135 -70 c54 -108 98 -219 146 -365 13 -41 33 -103 44 -136 11 -34 20 -72 20 -85 0 -33 -28 -59 -66 -59 -37 0 -61 20 -70 58 -24 102 -128 388 -190 522 -34 73 -35 76 -20 108 15 31 19 33 59 30 41 -3 43 -4 77 -73z"/>
 <path d="M13065 7778 c-4 -10 -4 -26 0 -35 8 -17 8 -17 12 0 3 9 3 25 0 35 -4 16 -4 16 -12 0z"/>
 <path d="M13227 7763 c-2 -4 -7 -20 -10 -34 -4 -16 -19 -33 -39 -42 -18 -9 -27 -17 -20 -17 27 0 54 22 68 57 9 19 13 37 11 40 -3 2 -7 1 -10 -4z"/>
 <path d="M8761 7664 c-12 -32 -19 -59 -17 -62 3 -3 17 3 30 12 27 17 51 54 42 63 -3 3 -10 -6 -15 -20 -10 -26 -29 -43 -37 -34 -8 8 25 67 41 74 17 6 10 23 -9 23 -7 0 -23 -25 -35 -56z"/>
 <path d="M13117 7679 c7 -7 15 -10 18 -7 3 3 -2 9 -12 12 -14 6 -15 5 -6 -5z"/>
 <path d="M8187 7618 c-22 -21 -44 -72 -107 -243 -10 -27 -32 -95 -49 -150 -85 -284 -87 -301 -45 -334 15 -12 39 -21 53 -21 48 0 69 25 96 118 84 284 123 403 166 499 26 59 24 95 -7 127 -33 32 -74 34 -107 4z m76 1 c47 -21 50 -51 16 -142 -17 -45 -34 -91 -39 -102 -18 -43 -91 -275 -121 -390 -21 -76 -33 -90 -80 -90 -36 0 -46 4 -58 26 -15 28 -16 26 19 139 4 14 13 45 20 70 7 25 32 104 55 175 78 238 102 292 134 310 32 17 26 17 54 4z"/>
 <path d="M9089 7503 c-13 -15 -12 -15 9 -4 23 12 28 21 13 21 -5 0 -15 -7 -22 -17z"/>
 <path d="M9190 7506 c0 -2 7 -7 16 -10 8 -3 12 -2 9 4 -6 10 -25 14 -25 6z"/>
 <path d="M9067 7473 c-4 -3 -7 -11 -7 -17 0 -6 5 -5 12 2 6 6 9 14 7 17 -3 3 -9 2 -12 -2z"/>
 <path d="M9060 7431 c0 -5 5 -13 10 -16 6 -3 10 -2 10 4 0 5 -4 13 -10 16 -5 3 -10 2 -10 -4z"/>
 <path d="M9309 7421 c31 -23 81 -53 81 -48 0 6 -88 67 -97 67 -4 0 3 -9 16 -19z"/>
 <path d="M9080 7390 c0 -5 5 -10 11 -10 5 0 7 5 4 10 -3 6 -8 10 -11 10 -2 0 -4 -4 -4 -10z"/>
 <path d="M9110 7368 c0 -8 91 -70 96 -65 3 2 -7 12 -21 21 -14 9 -36 23 -50 32 -14 9 -25 14 -25 12z"/>
 <path d="M9400 7355 c0 -2 10 -10 23 -16 20 -11 21 -11 8 4 -13 16 -31 23 -31 12z"/>
 <path d="M13009 7343 c-13 -15 -12 -15 9 -4 23 12 28 21 13 21 -5 0 -15 -7 -22 -17z"/>
 <path d="M12987 7313 c-4 -3 -7 -11 -7 -17 0 -6 5 -5 12 2 6 6 9 14 7 17 -3 3 -9 2 -12 -2z"/>
 <path d="M9480 7295 c0 -2 10 -10 23 -16 20 -11 21 -11 8 4 -13 16 -31 23 -31 12z"/>
 <path d="M9275 7246 c17 -14 35 -25 40 -25 11 0 -20 25 -50 41 -11 5 -6 -2 10 -16z"/>
 <path d="M13141 7254 c0 -11 3 -14 6 -6 3 7 2 16 -1 19 -3 4 -6 -2 -5 -13z"/>
 <path d="M9540 7246 c0 -2 7 -7 16 -10 8 -3 12 -2 9 4 -6 10 -25 14 -25 6z"/>
 <path d="M12967 7213 c-4 -3 -7 -11 -7 -17 0 -6 5 -5 12 2 6 6 9 14 7 17 -3 3 -9 2 -12 -2z"/>
 <path d="M9337 7199 c7 -7 15 -10 18 -7 3 3 -2 9 -12 12 -14 6 -15 5 -6 -5z"/>
 <path d="M9610 7191 c0 -5 7 -12 16 -15 14 -5 15 -4 4 9 -14 17 -20 19 -20 6z"/>
 <path d="M13127 7193 c-4 -3 -7 -11 -7 -17 0 -6 5 -5 12 2 6 6 9 14 7 17 -3 3 -9 2 -12 -2z"/>
 <path d="M9674 7135 c8 -8 18 -15 22 -15 3 0 1 7 -6 15 -7 8 -17 15 -22 15 -5 0 -3 -7 6 -15z"/>
 <path d="M12952 7130 c0 -14 2 -19 5 -12 2 6 2 18 0 25 -3 6 -5 1 -5 -13z"/>
 <path d="M9425 7130 c3 -5 11 -10 16 -10 6 0 7 5 4 10 -3 6 -11 10 -16 10 -6 0 -7 -4 -4 -10z"/>
 <path d="M9717 7092 c3 -12 9 -25 14 -28 14 -8 11 10 -6 32 -13 18 -14 18 -8 -4z"/>
 <path d="M13107 7103 c-4 -3 -7 -11 -7 -17 0 -6 5 -5 12 2 6 6 9 14 7 17 -3 3 -9 2 -12 -2z"/>
 <path d="M9490 7075 c7 -8 17 -15 22 -15 6 0 5 7 -2 15 -7 8 -17 15 -22 15 -6 0 -5 -7 2 -15z"/>
 <path d="M13055 7050 c-3 -5 -2 -10 4 -10 5 0 13 5 16 10 3 6 2 10 -4 10 -5 0 -13 -4 -16 -10z"/>
 <path d="M9542 7034 c10 -10 20 -15 24 -12 3 4 -5 12 -18 18 -22 12 -22 12 -6 -6z"/>
 <path d="M9691 6989 c-13 -10 -19 -19 -14 -19 13 0 49 27 43 33 -3 3 -16 -3 -29 -14z"/>
 <path d="M9617 6979 c7 -7 15 -10 18 -7 3 3 -2 9 -12 12 -14 6 -15 5 -6 -5z"/>
 <path d="M9998 6803 c7 -3 16 -2 19 1 4 3 -2 6 -13 5 -11 0 -14 -3 -6 -6z"/>
 <path d="M9927 6763 c-4 -3 -7 -11 -7 -17 0 -6 5 -5 12 2 6 6 9 14 7 17 -3 3 -9 2 -12 -2z"/>
 <path d="M12955 6730 c3 -5 11 -10 16 -10 6 0 7 5 4 10 -3 6 -11 10 -16 10 -6 0 -7 -4 -4 -10z"/>
 <path d="M12885 6720 c-3 -6 1 -7 9 -4 18 7 21 14 7 14 -6 0 -13 -4 -16 -10z"/>
 <path d="M9920 6703 c0 -5 7 -18 15 -29 13 -18 14 -18 8 4 -5 22 -23 41 -23 25z"/>
 <path d="M10177 6652 c3 -12 9 -25 14 -28 14 -8 11 10 -6 32 -13 18 -14 18 -8 -4z"/>
 <path d="M12851 6663 c0 -6 -4 -20 -7 -30 -5 -14 -4 -15 5 -7 7 7 11 20 8 30 -3 11 -5 14 -6 7z"/>
 <path d="M10176 6563 c-6 -14 -5 -15 5 -6 7 7 10 15 7 18 -3 3 -9 -2 -12 -12z"/>
 <path d="M5865 6549 c-24 -19 -26 -27 -22 -68 2 -25 14 -93 27 -151 12 -58 26 -123 30 -145 4 -22 15 -76 24 -120 9 -44 21 -107 27 -140 6 -33 16 -73 21 -88 21 -56 81 -73 128 -37 21 16 25 27 25 73 -1 29 -6 78 -13 108 -13 59 -40 191 -52 254 -7 37 -46 220 -57 273 -7 30 -49 62 -83 62 -15 0 -40 -10 -55 -21z m105 -14 c12 -15 23 -53 40 -140 5 -27 19 -93 30 -145 11 -52 25 -120 31 -150 6 -30 15 -75 20 -100 5 -25 12 -72 15 -106 7 -68 -7 -94 -52 -94 -57 0 -68 20 -94 170 -6 36 -15 83 -20 105 -12 49 -41 191 -47 225 -6 35 -19 96 -34 152 -10 41 -9 51 5 73 13 20 25 25 55 25 22 0 44 -6 51 -15z"/>
 <path d="M10095 6530 c3 -5 12 -10 20 -10 8 0 17 5 20 10 4 6 -5 10 -20 10 -15 0 -24 -4 -20 -10z"/>
 <path d="M12987 6533 c-4 -3 -7 -16 -6 -27 0 -19 1 -19 10 3 10 24 8 36 -4 24z"/>
 <path d="M12811 6493 c0 -6 -4 -20 -7 -30 -5 -14 -4 -15 5 -7 7 7 11 20 8 30 -3 11 -5 14 -6 7z"/>
 <path d="M12967 6453 c-4 -3 -7 -16 -6 -27 0 -19 1 -19 10 3 10 24 8 36 -4 24z"/>
 <path d="M7852 6400 c-25 -11 -40 -42 -54 -115 -15 -80 -24 -125 -41 -205 -13 -65 -26 -133 -66 -345 -13 -70 18 -114 81 -115 44 0 74 32 83 89 3 20 10 54 15 76 5 22 14 69 20 105 11 60 18 96 40 205 5 22 14 67 20 100 6 33 16 77 21 97 21 80 -44 138 -119 108z m95 -41 c15 -31 17 -19 -67 -434 -5 -27 -19 -97 -31 -155 -25 -129 -52 -161 -110 -129 -44 23 -43 35 11 319 5 25 14 72 20 105 59 312 66 328 129 323 27 -2 39 -9 48 -29z"/>
 <path d="M12947 6373 c-4 -3 -7 -16 -6 -27 0 -19 1 -19 10 3 10 24 8 36 -4 24z"/>
 <path d="M12771 6343 c0 -6 -4 -20 -7 -30 -5 -14 -4 -15 5 -7 7 7 11 20 8 30 -3 11 -5 14 -6 7z"/>
 <path d="M10375 6310 c-10 -11 -16 -22 -14 -24 2 -3 14 6 26 20 12 13 18 24 14 24 -4 0 -16 -9 -26 -20z"/>
 <path d="M10470 6326 c0 -2 7 -7 16 -10 8 -3 12 -2 9 4 -6 10 -25 14 -25 6z"/>
 <path d="M12927 6293 c-4 -3 -7 -11 -7 -17 0 -6 5 -5 12 2 6 6 9 14 7 17 -3 3 -9 2 -12 -2z"/>
 <path d="M10540 6262 c6 -13 14 -21 18 -18 3 4 -2 14 -12 24 -18 16 -18 16 -6 -6z"/>
 <path d="M12907 6223 c-4 -3 -7 -16 -6 -27 0 -19 1 -19 10 3 10 24 8 36 -4 24z"/>
 <path d="M10370 6211 c0 -6 4 -13 10 -16 6 -3 7 1 4 9 -7 18 -14 21 -14 7z"/>
 <path d="M10600 6196 c0 -4 9 -16 20 -28 11 -12 20 -17 20 -11 0 5 -9 18 -20 28 -11 10 -20 15 -20 11z"/>
 <path d="M10420 6153 c0 -5 12 -20 26 -34 24 -21 26 -22 16 -3 -13 25 -42 50 -42 37z"/>
 <path d="M12706 6114 c-4 -9 -4 -19 -1 -22 2 -3 7 3 11 12 4 9 4 19 1 22 -2 3 -7 -3 -11 -12z"/>
 <path d="M10678 6104 c13 -25 42 -50 42 -37 0 5 -12 20 -26 34 -24 21 -26 22 -16 3z"/>
 <path d="M12867 6083 c-4 -3 -7 -16 -6 -27 0 -19 1 -19 10 3 10 24 8 36 -4 24z"/>
 <path d="M10500 6061 c0 -5 7 -15 17 -22 15 -13 15 -12 4 9 -12 23 -21 28 -21 13z"/>
 <path d="M10740 6036 c0 -4 9 -16 20 -28 11 -12 20 -17 20 -11 0 5 -9 18 -20 28 -11 10 -20 15 -20 11z"/>
 <path d="M12836 5993 c-6 -14 -5 -15 5 -6 7 7 10 15 7 18 -3 3 -9 -2 -12 -12z"/>
 <path d="M10560 5993 c0 -5 12 -20 26 -34 24 -21 26 -22 16 -3 -13 25 -42 50 -42 37z"/>
 <path d="M10820 5942 c6 -13 14 -21 18 -18 3 4 -2 14 -12 24 -18 16 -18 16 -6 -6z"/>
 <path d="M12768 5953 c7 -3 16 -2 19 1 4 3 -2 6 -13 5 -11 0 -14 -3 -6 -6z"/>
 <path d="M10640 5901 c0 -5 7 -15 17 -22 15 -13 15 -12 4 9 -12 23 -21 28 -21 13z"/>
 <path d="M10880 5876 c0 -4 7 -14 15 -22 8 -9 15 -11 15 -6 0 5 -7 15 -15 22 -8 7 -15 9 -15 6z"/>
 <path d="M10700 5832 c0 -5 12 -19 27 -33 l27 -24 -23 33 c-23 32 -31 39 -31 24z"/>
 <path d="M10941 5774 c0 -11 3 -14 6 -6 3 7 2 16 -1 19 -3 4 -6 -2 -5 -13z"/>
 <path d="M10780 5743 c0 -12 28 -38 34 -32 2 2 -5 13 -15 23 -11 11 -19 15 -19 9z"/>
 <path d="M12590 5666 c0 -2 13 -6 29 -8 17 -2 28 -1 25 4 -5 8 -54 12 -54 4z"/>
 <path d="M12540 5628 c-22 -36 -26 -53 -10 -43 6 3 10 11 10 17 0 7 10 22 22 35 12 13 16 23 10 23 -7 0 -21 -15 -32 -32z"/>
 <path d="M12677 5622 c3 -12 9 -25 14 -28 14 -8 11 10 -6 32 -13 18 -14 18 -8 -4z"/>
 <path d="M12687 5573 c-4 -3 -7 -13 -7 -22 1 -13 3 -13 11 2 11 19 8 33 -4 20z"/>
 <path d="M12495 5529 c-4 -6 -5 -12 -2 -15 2 -3 7 2 10 11 7 17 1 20 -8 4z"/>
 <path d="M12663 5513 c-3 -10 -8 -22 -10 -28 -3 -5 3 -1 11 9 16 20 21 36 11 36 -3 0 -8 -8 -12 -17z"/>
 <path d="M11129 5483 c-13 -15 -12 -15 9 -4 23 12 28 21 13 21 -5 0 -15 -7 -22 -17z"/>
 <path d="M11215 5490 c3 -5 11 -10 16 -10 6 0 7 5 4 10 -3 6 -11 10 -16 10 -6 0 -7 -4 -4 -10z"/>
 <path d="M12470 5481 c-12 -24 -13 -34 -1 -27 9 6 22 46 15 46 -2 0 -8 -9 -14 -19z"/>
 <path d="M11107 5453 c-4 -3 -7 -11 -7 -17 0 -6 5 -5 12 2 6 6 9 14 7 17 -3 3 -9 2 -12 -2z"/>
 <path d="M12627 5433 c-4 -3 -7 -11 -7 -17 0 -6 5 -5 12 2 6 6 9 14 7 17 -3 3 -9 2 -12 -2z"/>
 <path d="M12460 5422 c0 -15 41 -62 53 -61 7 0 2 7 -10 16 -13 8 -23 21 -23 29 0 7 -4 16 -10 19 -5 3 -10 2 -10 -3z"/>
 <path d="M12575 5370 c-3 -5 -2 -10 4 -10 5 0 13 5 16 10 3 6 2 10 -4 10 -5 0 -13 -4 -16 -10z"/>
 <path d="M11120 5366 c0 -2 8 -10 18 -17 15 -13 16 -12 3 4 -13 16 -21 21 -21 13z"/>
 <path d="M11360 5351 c0 -5 5 -13 10 -16 6 -3 10 -2 10 4 0 5 -4 13 -10 16 -5 3 -10 2 -10 -4z"/>
 <path d="M6110 5293 c-40 -33 -40 -24 20 -368 22 -127 36 -208 49 -290 4 -27 13 -60 19 -72 27 -49 89 -57 129 -17 24 24 25 29 18 92 -3 37 -10 85 -15 107 -4 22 -13 72 -19 110 -67 413 -71 428 -118 453 -32 18 -48 15 -83 -15z m105 -20 c7 -10 15 -35 18 -58 3 -22 11 -67 17 -100 10 -57 15 -84 40 -235 6 -36 15 -90 21 -120 5 -30 12 -87 15 -127 l7 -71 -32 -16 c-28 -15 -34 -15 -60 -1 -31 16 -34 26 -61 183 -5 34 -15 90 -20 125 -6 34 -15 85 -20 112 -5 28 -14 82 -20 120 -7 39 -16 87 -20 109 -15 67 17 111 74 101 16 -3 34 -13 41 -22z"/>
 <path d="M11220 5266 c0 -2 8 -10 18 -17 15 -13 16 -12 3 4 -13 16 -21 21 -21 13z"/>
 <path d="M11276 5228 c3 -4 14 -8 24 -8 10 0 21 4 24 8 3 5 -8 9 -24 9 -16 0 -27 -4 -24 -9z"/>
 <path d="M7608 5130 c-25 -19 -32 -42 -58 -197 -5 -32 -12 -74 -15 -93 -38 -222 -65 -389 -65 -406 0 -12 9 -33 21 -48 39 -49 131 -26 143 37 2 12 9 54 15 92 7 39 16 96 21 128 6 31 14 83 20 115 5 31 14 89 21 127 6 39 15 89 20 112 15 70 11 102 -16 128 -29 30 -73 32 -107 5z m106 -31 c9 -21 11 -44 5 -68 -4 -20 -13 -70 -19 -111 -6 -41 -15 -95 -20 -120 -5 -25 -14 -79 -20 -120 -6 -41 -16 -95 -20 -120 -5 -25 -12 -66 -15 -92 -11 -83 -60 -119 -113 -82 -25 17 -29 71 -13 147 5 23 15 76 21 117 6 41 15 95 20 120 5 25 14 79 20 120 23 140 38 211 50 225 7 9 30 15 52 15 34 0 41 -4 52 -31z"/>
 <path d="M12234 5126 c-18 -8 -35 -20 -40 -28 -5 -8 3 -6 20 5 19 13 41 18 67 15 21 -2 35 -1 31 3 -16 15 -49 17 -78 5z"/>
 <path d="M11634 5085 c-18 -13 -18 -14 4 -8 12 3 25 9 28 14 8 14 -10 11 -32 -6z"/>
 <path d="M11685 5090 c3 -5 11 -10 16 -10 6 0 7 5 4 10 -3 6 -11 10 -16 10 -6 0 -7 -4 -4 -10z"/>
 <path d="M12335 5050 c0 -30 4 -45 9 -40 5 5 9 23 9 40 0 17 -4 35 -9 40 -5 5 -9 -10 -9 -40z"/>
 <path d="M11735 5070 c3 -5 11 -10 16 -10 6 0 7 5 4 10 -3 6 -11 10 -16 10 -6 0 -7 -4 -4 -10z"/>
 <path d="M11775 5050 c3 -5 14 -10 23 -10 15 0 15 2 2 10 -20 13 -33 13 -25 0z"/>
 <path d="M12070 5030 c-13 -8 -13 -10 2 -10 9 0 20 5 23 10 8 13 -5 13 -25 0z"/>
 <path d="M11591 5014 c0 -11 3 -14 6 -6 3 7 2 16 -1 19 -3 4 -6 -2 -5 -13z"/>
 <path d="M11920 5010 c0 -5 9 -10 21 -10 11 0 17 5 14 10 -3 6 -13 10 -21 10 -8 0 -14 -4 -14 -10z"/>
 <path d="M11985 5010 c-3 -5 1 -10 9 -10 8 0 18 5 21 10 3 6 -1 10 -9 10 -8 0 -18 -4 -21 -10z"/>
 <path d="M12250 4940 c-25 -16 -40 -30 -35 -30 11 0 85 48 85 55 0 8 -3 6 -50 -25z"/>
 <path d="M11637 4939 c7 -7 15 -10 18 -7 3 3 -2 9 -12 12 -14 6 -15 5 -6 -5z"/>
 <path d="M11684 4915 c22 -17 40 -20 32 -6 -3 5 -16 11 -28 14 -22 6 -22 5 -4 -8z"/>
 <path d="M12180 4900 c-9 -6 -10 -10 -3 -10 6 0 15 5 18 10 8 12 4 12 -15 0z"/>
 <path d="M11795 4870 c28 -12 37 -12 30 0 -3 6 -16 10 -28 9 -21 0 -21 -1 -2 -9z"/>
 <path d="M12105 4870 c-3 -5 -2 -10 4 -10 5 0 13 5 16 10 3 6 2 10 -4 10 -5 0 -13 -4 -16 -10z"/>
 <path d="M11905 4850 c3 -5 11 -10 16 -10 6 0 7 5 4 10 -3 6 -11 10 -16 10 -6 0 -7 -4 -4 -10z"/>
 <path d="M12005 4850 c-3 -5 1 -10 9 -10 8 0 18 5 21 10 3 6 -1 10 -9 10 -8 0 -18 -4 -21 -10z"/>
 <path d="M12058 4853 c7 -3 16 -2 19 1 4 3 -2 6 -13 5 -11 0 -14 -3 -6 -6z"/>
 <path d="M6319 4031 c-19 -15 -22 -27 -21 -70 0 -29 6 -78 12 -109 12 -63 23 -123 40 -227 7 -38 16 -88 20 -110 5 -22 14 -69 20 -105 6 -36 13 -75 16 -87 15 -79 142 -84 158 -5 6 28 5 39 -44 310 -6 31 -15 82 -20 112 -5 30 -14 82 -20 115 -6 33 -14 79 -17 102 -11 82 -86 121 -144 74z m112 -22 c6 -12 15 -46 19 -78 5 -31 14 -83 20 -116 6 -33 15 -85 20 -115 9 -52 16 -93 41 -227 27 -151 25 -174 -20 -193 -22 -9 -35 -9 -50 -1 -28 16 -38 37 -51 112 -7 35 -16 87 -21 114 -6 28 -14 75 -19 105 -5 30 -14 82 -20 115 -11 61 -26 148 -37 218 -9 60 11 87 63 87 34 0 46 -5 55 -21z"/>
 <path d="M7395 3868 c-26 -23 -34 -51 -66 -233 -16 -94 -35 -197 -60 -325 -7 -36 -13 -91 -14 -122 0 -66 18 -87 75 -87 61 0 78 27 99 154 7 39 16 88 21 110 9 41 20 100 40 215 6 36 15 88 21 115 5 28 10 72 11 99 2 42 -1 51 -25 72 -35 30 -68 30 -102 2z m97 -15 c20 -18 23 -53 9 -116 -5 -23 -14 -73 -21 -112 -6 -38 -15 -90 -20 -115 -5 -25 -14 -74 -20 -110 -34 -188 -49 -253 -67 -272 -21 -24 -66 -23 -88 2 -19 21 -18 82 4 195 6 28 15 76 21 108 21 118 30 169 41 225 5 31 14 80 18 108 10 72 33 104 73 104 17 0 40 -7 50 -17z"/>
 <path d="M6573 2780 c-29 -17 -33 -25 -33 -64 0 -25 7 -71 16 -103 9 -32 19 -71 24 -88 5 -16 16 -57 24 -90 9 -33 28 -91 42 -130 14 -38 29 -79 32 -90 15 -53 78 -151 128 -203 l57 -57 63 0 c63 0 63 0 119 55 56 56 65 80 44 125 -7 15 -8 10 -4 -18 6 -34 2 -41 -46 -93 l-53 -55 -65 3 c-62 3 -66 5 -89 38 -13 19 -31 38 -41 42 -36 13 -117 198 -169 383 -74 263 -78 281 -62 309 28 53 113 38 125 -22 12 -55 27 -118 35 -142 4 -14 13 -45 20 -70 54 -197 141 -393 176 -398 26 -4 43 17 88 102 19 38 37 63 40 55 13 -41 14 -43 15 -21 1 27 -15 62 -29 62 -6 0 -10 -7 -10 -16 0 -18 -56 -130 -78 -156 -9 -10 -19 -18 -23 -18 -11 0 -66 107 -92 175 -39 107 -85 259 -117 390 -17 70 -28 91 -57 104 -33 15 -43 14 -80 -9z"/>
 <path d="M7158 2629 c-19 -11 -22 -42 -7 -74 7 -15 8 -11 5 17 -4 34 -2 39 20 44 40 10 74 -19 74 -65 0 -21 -4 -51 -9 -67 -5 -16 -15 -49 -22 -74 l-14 -44 -12 39 c-7 24 -12 31 -12 19 -1 -26 18 -84 28 -84 4 0 12 21 20 48 7 26 16 57 21 69 5 12 12 45 16 72 6 47 4 52 -24 81 -32 31 -55 37 -84 19z"/>
 <path d="M7161 2505 c0 -11 4 -29 9 -40 l9 -20 0 20 c0 11 -4 29 -9 40 l-9 20 0 -20z"/>
 <path d="M7060 2205 c0 -11 5 -27 10 -35 8 -12 10 -12 10 5 0 11 -5 27 -10 35 -8 12 -10 12 -10 -5z"/>
 <path d="M5428 1763 c23 -2 59 -2 80 0 20 2 1 4 -43 4 -44 0 -61 -2 -37 -4z"/>
 <path d="M5350 1740 c-30 -30 -29 -131 2 -160 12 -11 26 -20 31 -20 5 0 -2 9 -17 21 -23 18 -26 28 -26 77 0 43 5 61 22 79 26 28 16 31 -12 3z"/>
 <path d="M5611 1756 c2 -2 47 -6 99 -9 65 -3 81 -2 50 3 -45 9 -157 13 -149 6z"/>
 <path d="M5846 1726 c107 -36 180 -98 202 -175 9 -27 12 -184 12 -522 0 -425 -2 -488 -16 -509 l-16 -25 21 24 c21 23 21 31 21 508 0 343 -3 497 -12 525 -24 80 -128 166 -218 181 -33 6 -33 6 6 -7z"/>
 <path d="M5538 1563 c18 -2 45 -2 60 0 15 2 0 4 -33 4 -33 0 -45 -2 -27 -4z"/>
 <path d="M5418 1553 c12 -2 32 -2 45 0 12 2 2 4 -23 4 -25 0 -35 -2 -22 -4z"/>
 <path d="M5641 1556 c2 -2 29 -6 59 -9 34 -3 47 -2 35 3 -19 8 -103 14 -94 6z"/>
 <path d="M5770 1533 c8 -3 23 -13 34 -22 17 -15 -8 -16 -335 -21 l-354 -5 358 -3 c196 -1 357 2 357 6 0 14 -45 52 -61 51 -11 0 -11 -2 1 -6z"/>
 <path d="M2163 1483 c93 -2 241 -2 330 0 89 1 14 3 -168 3 -181 0 -254 -2 -162 -3z"/>
 <path d="M3643 1483 c114 -2 300 -2 415 0 114 1 20 2 -208 2 -228 0 -322 -1 -207 -2z"/>
 <path d="M6618 1483 c50 -2 134 -2 185 0 50 1 9 3 -93 3 -102 0 -143 -2 -92 -3z"/>
 <path d="M7640 1468 c-18 -20 -21 -32 -18 -82 7 -101 -18 -96 460 -96 428 0 483 -5 526 -43 33 -31 31 -98 -4 -126 -15 -12 -22 -21 -17 -21 5 0 19 9 31 20 32 30 31 100 -2 131 -47 45 -83 49 -526 49 -344 1 -418 3 -434 15 -27 20 -34 106 -12 140 l16 25 468 3 467 2 -467 3 -467 2 -21 -22z"/>
 <path d="M9000 1468 c-20 -21 -20 -32 -20 -609 0 -563 1 -588 19 -610 l19 -24 519 -3 c285 -1 559 1 608 5 52 5 -167 8 -518 8 -591 0 -609 1 -623 19 -12 17 -14 115 -14 606 0 555 1 588 18 603 17 15 76 17 598 20 l579 2 -582 3 -582 2 -21 -22z"/>
 <path d="M10777 1483 c75 -3 84 -6 103 -30 11 -14 20 -21 20 -16 0 5 -10 19 -23 31 -20 19 -33 22 -103 20 l-79 -2 82 -3z"/>
 <path d="M1935 1473 c-103 -24 -229 -86 -270 -135 -63 -75 -60 -47 -60 -579 0 -560 -7 -522 93 -534 31 -3 67 -3 79 2 15 5 -2 9 -54 10 -55 1 -80 6 -92 17 -14 15 -16 66 -19 449 -2 238 0 460 3 494 14 133 114 214 330 268 46 12 37 19 -10 8z"/>
 <path d="M2680 1470 c14 -4 36 -8 50 -8 22 0 22 1 -5 8 -16 4 -39 8 -50 8 -16 0 -15 -2 5 -8z"/>
 <path d="M3357 1463 c-26 -9 -46 -18 -43 -20 2 -2 30 5 62 16 33 11 52 20 44 20 -8 0 -36 -7 -63 -16z"/>
 <path d="M4290 1470 c14 -4 34 -8 45 -8 16 0 15 2 -5 8 -14 4 -34 8 -45 8 -16 0 -15 -2 5 -8z"/>
 <path d="M4990 1470 c-50 -11 1 -11 60 -1 41 8 42 8 10 8 -19 0 -51 -3 -70 -7z"/>
 <path d="M6450 1470 c-34 -7 -34 -7 -5 -8 17 0 39 3 50 8 24 10 4 10 -45 0z"/>
 <path d="M6907 1470 c7 -9 14 -43 16 -75 l3 -60 2 61 c2 48 -2 65 -15 75 -16 12 -17 12 -6 -1z"/>
 <path d="M8620 1470 c14 -4 34 -8 45 -8 16 0 15 2 -5 8 -14 4 -34 8 -45 8 -16 0 -15 -2 5 -8z"/>
 <path d="M10220 1468 c150 -44 213 -78 270 -145 18 -21 27 -29 22 -18 -12 23 -64 73 -108 103 -35 24 -173 73 -201 71 -10 -1 -2 -6 17 -11z"/>
 <path d="M10670 1465 c-7 -9 -10 -18 -7 -21 3 -3 10 4 17 15 13 25 8 27 -10 6z"/>
 <path d="M2799 1439 c24 -11 46 -18 48 -15 4 4 -73 36 -85 35 -4 0 13 -9 37 -20z"/>
 <path d="M4370 1450 c8 -5 20 -10 25 -10 6 0 3 5 -5 10 -8 5 -19 10 -25 10 -5 0 -3 -5 5 -10z"/>
 <path d="M4882 1440 c-64 -23 -121 -67 -145 -112 -17 -32 -17 -32 0 -8 42 57 133 120 175 120 7 0 20 5 28 10 23 15 0 11 -58 -10z"/>
 <path d="M6380 1450 c-8 -5 -10 -10 -5 -10 6 0 17 5 25 10 8 5 11 10 5 10 -5 0 -17 -5 -25 -10z"/>
 <path d="M8700 1450 c8 -5 20 -10 25 -10 6 0 3 5 -5 10 -8 5 -19 10 -25 10 -5 0 -3 -5 5 -10z"/>
 <path d="M3255 1419 c-48 -25 -102 -74 -121 -111 -24 -46 -16 -44 14 3 35 53 54 70 110 99 23 12 42 24 42 26 0 6 -3 5 -45 -17z"/>
 <path d="M4410 1437 c0 -3 17 -16 39 -30 48 -32 82 -86 98 -157 l13 -55 -5 48 c-5 53 -22 89 -61 136 -23 27 -84 69 -84 58z"/>
 <path d="M6340 1430 c-9 -6 -10 -10 -3 -10 6 0 15 5 18 10 8 12 4 12 -15 0z"/>
 <path d="M8740 1436 c0 -2 16 -14 35 -26 19 -12 48 -43 63 -68 25 -44 27 -55 27 -162 0 -132 -11 -162 -83 -217 -78 -59 -124 -67 -457 -74 l-300 -6 305 2 c316 2 343 5 427 49 44 22 100 89 112 133 15 53 13 190 -3 236 -18 49 -56 98 -95 120 -17 10 -31 16 -31 13z"/>
 <path d="M10652 858 l-2 -577 24 -28 24 -28 509 -3 c279 -1 546 1 593 5 50 5 -162 8 -507 8 -555 0 -593 1 -610 18 -17 16 -18 58 -23 600 l-5 582 -3 -577z"/>
 <path d="M2889 1394 c18 -15 47 -48 62 -73 16 -25 29 -41 29 -35 0 23 -72 109 -105 126 -11 5 -5 -3 14 -18z"/>
 <path d="M6275 1389 c-19 -17 -45 -45 -56 -63 -20 -29 -19 -29 9 4 17 19 45 47 63 63 18 15 30 27 26 27 -3 0 -22 -14 -42 -31z"/>
 <path d="M6899 1313 c-13 -16 -12 -17 4 -4 16 13 21 21 13 21 -2 0 -10 -8 -17 -17z"/>
 <path d="M2062 1292 c-13 -4 117 -7 289 -7 172 0 300 3 283 6 -39 9 -542 9 -572 1z"/>
 <path d="M3498 1292 c-10 -4 151 -7 357 -7 206 0 367 3 357 7 -9 4 -170 7 -357 7 -187 0 -348 -3 -357 -7z"/>
 <path d="M6640 1290 c-19 -3 24 -5 95 -2 72 2 135 5 140 7 19 7 -200 2 -235 -5z"/>
 <path d="M4706 1268 c-3 -13 -6 -183 -6 -379 l0 -356 23 -21 c19 -18 35 -22 93 -22 46 0 77 5 90 15 10 8 14 15 7 15 -6 0 -15 -5 -18 -10 -3 -5 -39 -10 -79 -10 -115 0 -107 -29 -104 414 2 207 2 376 2 376 -1 0 -4 -10 -8 -22z"/>
 <path d="M5460 1280 l365 -5 5 -370 5 -370 0 375 0 375 -370 0 -370 1 365 -6z"/>
 <path d="M6186 1275 c-9 -26 -7 -32 5 -12 6 10 9 21 6 23 -2 3 -7 -2 -11 -11z"/>
 <path d="M9225 1277 c-3 -6 -4 -201 -3 -432 l3 -420 428 -3 c236 -1 442 1 458 5 16 5 -176 7 -426 5 l-455 -3 0 425 0 426 443 3 442 2 -443 3 c-347 1 -444 -1 -447 -11z"/>
 <path d="M1960 1270 c-10 -6 -2 -7 25 -3 49 7 58 13 19 13 -16 0 -36 -5 -44 -10z"/>
 <path d="M2696 1261 c18 -11 39 -30 48 -42 9 -13 16 -18 16 -10 0 18 -58 71 -79 71 -10 0 -4 -7 15 -19z"/>
 <path d="M3399 1260 c-45 -24 -62 -44 -56 -67 4 -14 5 -13 6 4 1 25 32 48 89 69 21 7 28 13 17 13 -11 0 -36 -8 -56 -19z"/>
 <path d="M4256 1270 c12 -4 31 -21 43 -36 11 -14 21 -22 21 -17 0 17 -51 63 -69 62 -11 0 -10 -3 5 -9z"/>
 <path d="M4991 1258 c-70 -34 -71 -40 -69 -410 l2 -323 6 337 5 338 25 24 c14 14 50 32 80 40 41 11 47 15 25 15 -16 0 -50 -10 -74 -21z"/>
 <path d="M6499 1252 c-57 -37 -75 -58 -87 -105 -8 -28 -8 -39 1 -43 7 -2 255 -3 552 -2 l540 3 -542 3 -543 2 0 23 c0 55 74 123 149 138 35 7 35 7 5 8 -18 1 -48 -11 -75 -27z"/>
 <path d="M10121 1276 c2 -2 20 -6 39 -10 25 -4 31 -3 20 4 -14 9 -69 15 -59 6z"/>
 <path d="M10527 1265 c4 -11 10 -198 13 -415 l5 -395 2 390 c2 335 0 394 -13 415 -8 14 -12 16 -7 5z"/>
 <path d="M2985 998 l0 -273 -27 -47 c-16 -25 -39 -55 -53 -66 -14 -11 -25 -23 -25 -28 0 -16 72 62 93 101 20 37 22 57 25 275 2 129 0 252 -5 273 -5 23 -8 -71 -8 -235z"/>
 <path d="M1894 1246 c-36 -20 -54 -38 -54 -54 0 -10 6 -7 20 10 10 14 34 32 52 41 18 9 26 16 18 16 -8 -1 -25 -6 -36 -13z"/>
 <path d="M3114 1130 c0 -74 1 -105 3 -67 2 37 2 97 0 135 -2 37 -3 6 -3 -68z"/>
 <path d="M10225 1244 c17 -8 39 -23 51 -32 11 -9 5 -2 -15 16 -19 17 -41 32 -50 32 -9 0 -2 -7 14 -16z"/>
 <path d="M6172 992 c-2 -238 -1 -255 19 -297 21 -45 79 -105 121 -124 22 -11 22 -11 -2 6 -122 88 -124 94 -130 408 l-6 260 -2 -253z"/>
 <path d="M4326 1166 c3 -21 2 -72 -2 -113 l-6 -74 -427 3 c-234 2 -435 7 -446 11 l-20 9 20 -14 c15 -10 115 -14 440 -18 231 -3 425 -4 432 -2 16 5 28 180 14 212 -10 22 -11 20 -5 -14z"/>
 <path d="M10308 860 l3 -318 -27 -32 c-27 -32 -52 -46 -109 -60 -22 -6 -24 -8 -9 -9 45 -2 119 43 143 86 12 24 16 620 3 640 -4 6 -6 -132 -4 -307z"/>
 <path d="M2764 980 c0 -96 2 -136 3 -87 2 48 2 126 0 175 -1 48 -3 8 -3 -88z"/>
 <path d="M7521 1083 c7 -12 15 -20 18 -17 3 2 -3 12 -13 22 -17 16 -18 16 -5 -5z"/>
 <path d="M8270 1090 l-275 -5 275 -3 c164 -1 281 2 290 8 13 9 13 9 0 8 -8 -2 -139 -5 -290 -8z"/>
 <path d="M3341 1073 c-1 -21 50 -73 71 -73 6 0 -4 10 -23 23 -18 12 -36 33 -40 47 -6 23 -7 23 -8 3z"/>
 <path d="M7890 1070 c-27 -6 -29 -8 -10 -8 14 -1 43 3 65 7 33 7 35 9 10 9 -16 -1 -46 -4 -65 -8z"/>
 <path d="M7790 1044 c-84 -29 -156 -101 -165 -165 -4 -32 -4 -31 7 5 17 60 90 128 161 150 31 10 57 20 57 22 0 7 -12 4 -60 -12z"/>
 <path d="M10900 1048 c0 -5 206 -7 458 -6 251 1 385 4 297 5 -408 7 -755 7 -755 1z"/>
 <path d="M7544 890 c0 -91 2 -128 3 -82 2 45 2 119 0 165 -1 45 -3 8 -3 -83z"/>
 <path d="M11840 1030 c14 -4 39 -8 55 -8 l30 0 -30 8 c-16 4 -41 8 -55 8 l-25 0 25 -8z"/>
 <path d="M11940 1010 c8 -5 24 -10 34 -10 26 0 18 6 -19 14 -22 5 -26 4 -15 -4z"/>
 <path d="M12005 990 c3 -5 14 -10 24 -10 9 0 22 -5 29 -12 6 -6 15 -9 18 -5 4 4 -9 14 -29 22 -43 18 -50 19 -42 5z"/>
 <path d="M3120 987 c0 -18 31 -64 67 -98 39 -38 101 -74 110 -66 2 3 -15 14 -39 25 -46 21 -96 69 -121 117 -9 17 -16 26 -17 22z"/>
 <path d="M12120 936 c0 -4 10 -17 23 -29 12 -13 30 -34 40 -47 17 -24 17 -24 0 8 -18 33 -63 82 -63 68z"/>
 <path d="M6413 903 c-9 -3 -13 -27 -13 -67 0 -52 4 -66 23 -83 36 -33 83 -53 124 -52 l38 1 -46 8 c-50 9 -99 31 -118 53 -7 10 -11 38 -9 74 l3 58 445 5 445 5 -440 2 c-242 1 -446 -1 -452 -4z"/>
 <path d="M7312 839 c-2 -49 -7 -70 -20 -82 -23 -21 -95 -47 -136 -48 -30 -2 -30 -2 -3 -6 38 -6 119 23 146 51 19 20 22 32 18 87 l-3 64 -2 -66z"/>
 <path d="M7931 871 c-8 -5 5 -7 35 -4 27 3 51 7 53 9 9 8 -75 3 -88 -5z"/>
 <path d="M7865 835 c-16 -15 -25 -36 -25 -55 0 -35 38 -80 67 -80 11 1 5 6 -14 15 -55 23 -58 101 -5 129 15 9 21 15 14 16 -7 0 -24 -11 -37 -25z"/>
 <path d="M10907 843 c-5 -7 327 -7 708 0 83 1 -42 4 -277 5 -235 1 -429 -1 -431 -5z"/>
 <path d="M7613 780 c0 -36 2 -50 4 -32 2 17 2 47 0 65 -2 17 -4 3 -4 -33z"/>
 <path d="M11771 836 c2 -2 24 -6 48 -9 29 -4 40 -2 30 4 -13 8 -88 14 -78 5z"/>
 <path d="M12201 825 c1 -19 18 -51 18 -35 0 8 -4 22 -9 30 -5 8 -9 11 -9 5z"/>
 <path d="M3336 807 c17 -8 51 -17 75 -20 l44 -6 -50 14 c-94 26 -103 27 -69 12z"/>
 <path d="M11889 809 c14 -5 31 -15 38 -21 7 -6 13 -6 13 -1 0 11 -44 33 -63 32 -7 0 -1 -5 12 -10z"/>
 <path d="M2728 759 c-24 -23 -54 -33 -153 -53 -14 -2 -12 -4 7 -5 46 -2 117 22 151 50 18 15 30 29 27 31 -3 2 -17 -8 -32 -23z"/>
 <path d="M4551 770 c-1 -14 -4 -36 -6 -50 l-6 -25 11 25 c6 13 9 36 7 50 l-4 25 -2 -25z"/>
 <path d="M3883 773 c262 -2 427 -7 427 -13 0 -5 -9 -14 -21 -20 -11 -7 -18 -14 -15 -17 8 -9 46 27 46 44 0 11 -76 13 -432 11 l-433 -3 428 -2z"/>
 <path d="M11950 774 c0 -5 7 -18 15 -28 8 -11 15 -16 15 -10 0 5 -7 18 -15 28 -8 11 -15 16 -15 10z"/>
 <path d="M12224 610 c0 -80 2 -112 3 -72 2 39 2 105 0 145 -1 39 -3 7 -3 -73z"/>
 <path d="M4220 710 c-21 -7 -21 -8 -5 -9 11 0 27 4 35 9 18 11 5 11 -30 0z"/>
 <path d="M1849 697 c4 -4 162 -6 352 -5 l344 3 -352 5 c-194 3 -349 2 -344 -3z"/>
 <path d="M7516 670 c-30 -69 -122 -128 -240 -155 -15 -3 -26 -9 -23 -12 7 -7 94 21 153 49 47 22 109 84 125 125 16 42 4 36 -15 -7z"/>
 <path d="M7621 697 c-3 -61 97 -152 184 -170 28 -6 29 -6 5 4 -111 47 -150 80 -174 144 -8 22 -15 32 -15 22z"/>
 <path d="M4008 693 c-134 -3 -137 -4 -157 -30 -31 -38 -29 -122 2 -152 23 -20 31 -21 158 -18 l134 3 -136 2 c-117 2 -138 5 -152 20 -22 24 -23 110 -1 140 14 21 22 22 152 23 75 1 148 5 162 9 l25 8 -25 -1 c-14 -1 -87 -3 -162 -4z"/>
 <path d="M6630 688 c56 -8 415 -8 454 1 16 3 -89 6 -235 6 -145 0 -244 -3 -219 -7z"/>
 <path d="M7955 691 c17 -5 100 -9 186 -10 163 -1 175 -4 192 -51 4 -12 6 -11 6 3 1 9 -8 26 -19 37 -18 18 -33 20 -152 20 -73 0 -158 2 -188 5 -41 3 -47 2 -25 -4z"/>
 <path d="M4510 655 c-12 -19 -41 -48 -64 -64 -47 -32 -152 -70 -200 -72 -17 -1 -44 -5 -61 -10 -21 -6 -12 -6 30 -3 146 13 269 75 311 155 20 40 10 36 -16 -6z"/>
 <path d="M11983 600 c0 -47 2 -66 4 -42 2 23 2 61 0 85 -2 23 -4 4 -4 -43z"/>
 <path d="M2820 559 c-19 -10 -31 -18 -27 -19 12 0 77 28 77 34 0 9 -12 5 -50 -15z"/>
 <path d="M8330 562 c0 -10 -7 -29 -16 -42 l-16 -25 21 24 c19 21 29 61 16 61 -3 0 -5 -8 -5 -18z"/>
 <path d="M6350 550 c8 -5 20 -10 25 -10 6 0 3 5 -5 10 -8 5 -19 10 -25 10 -5 0 -3 -5 5 -10z"/>
 <path d="M2730 530 c-11 -8 -7 -9 15 -4 37 8 45 14 19 14 -10 0 -26 -5 -34 -10z"/>
 <path d="M6405 530 c27 -12 43 -12 25 0 -8 5 -22 9 -30 9 -10 0 -8 -3 5 -9z"/>
 <path d="M5840 526 c0 -2 8 -10 18 -17 15 -13 16 -12 3 4 -13 16 -21 21 -21 13z"/>
 <path d="M2590 510 c-41 -6 -42 -7 -10 -8 19 0 58 3 85 8 47 7 48 7 10 7 -22 0 -60 -3 -85 -7z"/>
 <path d="M6470 510 c14 -4 34 -8 45 -8 l20 -1 -20 9 c-11 5 -31 8 -45 8 l-25 0 25 -8z"/>
 <path d="M7875 509 c51 -10 92 -10 50 1 -16 4 -43 8 -60 8 -25 0 -24 -2 10 -9z"/>
 <path d="M11970 504 c0 -13 -56 -46 -94 -55 -25 -5 -26 -7 -8 -8 41 -2 125 50 108 66 -3 4 -6 2 -6 -3z"/>
 <path d="M5913 493 c20 -2 54 -2 75 0 20 2 3 4 -38 4 -41 0 -58 -2 -37 -4z"/>
 <path d="M6713 493 c97 -2 257 -2 355 0 97 1 17 2 -178 2 -195 0 -275 -1 -177 -2z"/>
 <path d="M8058 493 c46 -2 118 -2 160 0 42 1 5 3 -83 3 -88 0 -123 -2 -77 -3z"/>
 <path d="M12197 421 c-17 -38 -38 -60 -97 -104 -25 -18 -25 -18 5 -1 58 32 122 109 113 135 -2 6 -11 -8 -21 -30z"/>
 <path d="M10525 429 c-4 -13 -31 -48 -59 -78 -47 -50 -48 -52 -13 -26 37 27 95 111 84 121 -3 3 -8 -5 -12 -17z"/>
 <path d="M10903 440 c3 -13 61 -15 434 -18 237 -1 447 1 467 5 20 5 -171 7 -425 5 -372 -3 -464 -1 -471 10 -7 10 -9 10 -5 -2z"/>
 <path d="M1822 268 c-10 -30 -10 -31 3 -14 13 17 21 46 12 46 -1 0 -8 -15 -15 -32z"/>
 <path d="M10385 292 c-6 -5 -30 -14 -55 -21 -80 -23 -100 -32 -60 -25 50 8 129 35 136 45 7 11 -9 12 -21 1z"/>
 <path d="M12040 290 c-8 -5 -10 -10 -5 -10 6 0 17 5 25 10 8 5 11 10 5 10 -5 0 -17 -5 -25 -10z"/>
 <path d="M11980 270 c-18 -12 -2 -12 25 0 13 6 15 9 5 9 -8 0 -22 -4 -30 -9z"/>
 <path d="M11905 250 c-25 -11 1 -11 35 0 20 6 21 8 5 8 -11 0 -29 -3 -40 -8z"/>
 <path d="M100 110 c0 -5 5 -10 11 -10 5 0 7 5 4 10 -3 6 -8 10 -11 10 -2 0 -4 -4 -4 -10z"/>
 </g>
<g id="layer5" fill="#8dd0eb" stroke="none">
 <path d="M95 4350 c0 -2324 1 -3274 2 -2112 2 1161 2 3063 0 4225 -1 1161 -2 211 -2 -2113z"/>
 <path d="M830 8350 c0 -7 -39 -10 -110 -9 -75 1 -115 -3 -125 -11 -18 -15 -21 -115 -4 -126 6 -3 62 -6 125 -5 74 1 114 -2 114 -9 0 -7 73 -10 220 -10 140 0 220 4 220 10 0 6 120 10 340 10 220 0 340 -4 340 -10 0 -6 80 -10 220 -10 140 0 220 4 220 10 0 6 40 10 100 10 55 0 100 -3 100 -7 0 -5 103 -8 229 -8 126 0 227 3 224 8 -2 4 149 7 337 7 224 0 339 -3 335 -10 -4 -7 71 -9 219 -7 124 1 226 5 226 10 0 4 41 7 90 7 50 0 90 -3 90 -7 0 -5 80 -9 178 -11 97 -1 194 -5 215 -8 28 -4 37 -3 35 8 -4 18 221 23 341 8 47 -6 97 -11 111 -10 33 1 183 -19 240 -32 189 -43 329 -151 445 -343 89 -147 191 -401 256 -635 6 -19 14 -48 19 -65 11 -39 49 -180 60 -225 8 -32 14 -55 40 -170 25 -111 54 -240 60 -275 4 -22 15 -76 24 -120 30 -149 67 -344 81 -425 3 -19 11 -60 16 -90 6 -30 14 -80 19 -110 11 -68 37 -226 50 -302 26 -153 46 -273 60 -368 6 -41 15 -100 20 -130 5 -30 14 -85 20 -123 5 -37 15 -96 20 -132 6 -36 15 -94 20 -130 6 -36 14 -93 20 -127 5 -35 14 -97 20 -138 6 -41 15 -100 20 -130 5 -30 14 -89 20 -130 6 -41 15 -100 20 -130 5 -30 14 -89 20 -130 16 -112 30 -200 40 -250 4 -25 13 -79 20 -120 15 -98 29 -183 40 -245 5 -27 14 -78 20 -112 23 -141 32 -190 40 -228 5 -22 14 -69 20 -105 6 -36 15 -83 20 -105 5 -22 14 -67 20 -100 7 -33 16 -73 21 -89 5 -15 6 -32 3 -38 -3 -5 0 -16 7 -24 6 -8 15 -31 19 -52 5 -20 15 -63 24 -95 9 -32 16 -67 16 -78 0 -10 4 -27 9 -37 5 -9 14 -35 20 -57 7 -22 16 -49 21 -60 4 -11 18 -47 31 -80 12 -33 40 -86 61 -117 31 -46 50 -63 95 -83 49 -23 60 -25 85 -14 47 19 105 65 120 96 8 15 24 45 36 65 52 91 152 450 211 758 6 30 15 80 21 110 11 58 23 124 40 213 8 49 15 85 40 237 6 33 15 87 20 120 19 112 29 175 40 250 6 41 15 100 20 130 5 30 14 89 20 130 6 41 15 100 20 130 5 30 14 88 20 127 6 40 15 102 20 138 6 36 14 94 20 130 5 36 14 97 20 135 6 38 15 99 20 135 6 36 14 94 20 130 5 36 14 98 20 138 6 39 15 97 20 127 5 30 14 89 20 130 6 41 15 100 20 130 5 30 14 89 20 130 7 41 15 95 20 120 5 25 13 79 20 120 6 41 15 98 20 125 5 28 14 78 20 113 17 103 31 185 40 232 5 25 14 74 20 110 6 36 15 83 20 105 5 22 14 69 20 105 6 36 15 83 20 105 5 22 14 65 20 95 23 109 29 136 49 220 46 197 101 411 126 490 34 107 56 175 65 195 13 32 46 125 66 189 10 33 26 66 35 75 9 9 28 38 43 64 114 207 252 324 431 365 149 33 189 34 2068 36 1030 2 1881 6 1892 11 28 11 55 46 55 72 0 12 -11 34 -23 49 -23 26 -30 28 -143 34 -197 12 -3282 3 -3529 -9 -252 -13 -312 -19 -340 -31 -11 -5 -49 -19 -85 -31 -173 -58 -296 -154 -406 -317 -47 -70 -84 -138 -84 -155 0 -7 -9 -32 -20 -55 -11 -22 -20 -45 -20 -50 0 -5 -9 -17 -20 -27 -11 -10 -24 -32 -29 -49 -5 -17 -24 -69 -41 -116 -18 -47 -36 -98 -40 -115 -4 -16 -14 -50 -22 -75 -16 -47 -24 -76 -57 -195 -18 -65 -28 -109 -81 -327 -19 -83 -46 -207 -60 -283 -4 -22 -15 -76 -24 -120 -9 -44 -21 -105 -26 -135 -6 -30 -15 -75 -20 -100 -8 -42 -15 -81 -41 -232 -6 -35 -14 -83 -19 -108 -5 -25 -14 -79 -20 -120 -6 -41 -15 -95 -20 -120 -5 -25 -13 -79 -20 -120 -6 -41 -15 -100 -20 -130 -5 -30 -14 -85 -20 -122 -5 -38 -14 -97 -20 -133 -5 -36 -14 -94 -20 -130 -10 -63 -18 -117 -40 -268 -6 -39 -15 -97 -20 -127 -5 -30 -14 -91 -20 -135 -6 -44 -15 -105 -20 -135 -5 -30 -14 -88 -20 -127 -6 -40 -15 -102 -20 -138 -6 -36 -14 -94 -20 -130 -5 -36 -14 -98 -20 -138 -6 -39 -15 -97 -20 -127 -5 -30 -14 -86 -20 -125 -6 -38 -15 -96 -20 -127 -6 -32 -15 -85 -20 -118 -6 -33 -15 -87 -20 -120 -6 -33 -15 -87 -20 -120 -16 -99 -31 -182 -40 -230 -5 -25 -14 -72 -20 -105 -89 -464 -175 -764 -246 -859 -14 -20 -14 -20 -29 0 -20 26 -55 101 -55 117 0 7 -4 17 -8 22 -24 27 -107 347 -97 372 2 7 0 13 -5 13 -9 0 -19 30 -39 123 -6 26 -16 67 -22 91 -6 25 -9 50 -7 58 3 7 1 23 -3 36 -5 12 -14 50 -20 85 -6 34 -15 85 -20 112 -6 28 -14 75 -19 105 -5 30 -14 82 -20 115 -6 33 -15 87 -21 120 -5 33 -14 87 -20 120 -9 56 -15 94 -39 250 -5 33 -14 87 -19 120 -6 33 -15 90 -21 128 -5 37 -14 96 -20 132 -5 36 -14 94 -20 130 -5 36 -14 94 -20 130 -5 36 -14 93 -20 128 -15 96 -28 185 -40 262 -6 39 -15 98 -20 133 -12 73 -26 168 -40 255 -5 34 -14 91 -20 127 -6 36 -15 92 -20 125 -5 33 -11 76 -15 95 -3 19 -10 61 -15 93 -38 224 -50 299 -60 352 -5 28 -14 79 -20 115 -6 36 -15 85 -20 110 -5 25 -14 74 -20 110 -6 36 -16 85 -21 110 -17 81 -41 204 -49 245 -13 69 -41 199 -49 230 -5 17 -14 57 -21 90 -7 33 -19 85 -27 115 -8 30 -19 71 -23 90 -16 66 -48 185 -65 240 -40 126 -97 296 -104 315 -5 11 -18 41 -30 67 -12 26 -21 51 -21 54 0 11 -84 178 -115 229 -73 119 -162 220 -255 289 -93 69 -227 126 -290 124 -51 -1 -225 26 -232 36 -8 12 -1550 26 -1559 14 -7 -10 -1319 -6 -1319 5 0 4 -99 7 -220 7 -140 0 -220 -4 -220 -10 0 -6 -120 -10 -340 -10 -220 0 -340 4 -340 10 0 6 -80 10 -220 10 -147 0 -220 -3 -220 -10z"/>
 <path d="M5548 1763 c6 -2 18 -2 25 0 6 3 1 5 -13 5 -14 0 -19 -2 -12 -5z"/>
 <path d="M10904 1245 c0 -93 2 -133 3 -88 2 45 2 122 0 170 -1 48 -3 12 -3 -82z"/>
 <path d="M1844 940 c0 -124 2 -174 3 -112 2 61 2 163 0 225 -1 61 -3 11 -3 -113z"/>
 <path d="M3342 1130 c0 -19 2 -27 5 -17 2 9 2 25 0 35 -3 9 -5 1 -5 -18z"/>
 <path d="M4564 985 c0 -99 2 -138 3 -87 2 51 2 132 0 180 -1 48 -3 6 -3 -93z"/>
 <path d="M10904 640 c0 -102 2 -143 3 -92 2 50 2 134 0 185 -1 50 -3 9 -3 -93z"/>
 <path d="M1844 487 c-3 -8 -4 -52 -2 -98 l3 -84 5 98 c5 96 4 109 -6 84z"/>
 <path d="M3532 93 c1869 -2 4927 -2 6795 0 1869 1 340 2 -3397 2 -3737 0 -5266 -1 -3398 -2z"/>
 </g>
<g id="layer6" fill="#fefefe" stroke="none">
 <path d="M0 4350 l0 -4350 6930 0 6930 0 0 4350 0 4350 -6930 0 -6930 0 0 -4350z m13744 4234 c3 -9 6 -1919 6 -4244 0 -4174 0 -4229 -19 -4240 -24 -12 -13615 -9 -13628 3 -12 13 -15 8454 -3 8478 11 19 90 19 6824 19 6204 0 6814 -1 6820 -16z"/>
 <path d="M135 8548 c-3 -7 -4 -1903 -3 -4213 l3 -4200 6788 -3 6787 -2 0 4215 0 4215 -6785 0 c-5419 0 -6787 -3 -6790 -12z m4954 -202 c5 -3 97 -6 205 -7 175 -2 197 -4 212 -20 9 -10 33 -23 53 -29 197 -61 358 -194 486 -405 31 -51 115 -218 115 -229 0 -3 9 -28 21 -54 12 -26 25 -56 30 -67 7 -19 64 -189 104 -315 17 -55 49 -174 65 -240 4 -19 15 -60 23 -90 8 -30 20 -82 27 -115 7 -33 16 -73 21 -90 8 -31 36 -161 49 -230 8 -41 32 -164 49 -245 5 -25 15 -74 21 -110 6 -36 15 -85 20 -110 5 -25 14 -74 20 -110 6 -36 15 -87 20 -115 10 -53 22 -128 60 -352 5 -32 12 -74 15 -93 4 -19 10 -62 15 -95 5 -33 14 -89 20 -125 6 -36 15 -94 21 -130 5 -36 14 -92 19 -125 5 -33 14 -91 20 -130 6 -38 15 -98 20 -132 6 -35 15 -92 20 -128 6 -36 14 -93 20 -127 5 -35 14 -94 20 -133 6 -38 15 -98 20 -132 6 -35 15 -93 20 -130 21 -135 31 -199 41 -258 5 -33 14 -87 19 -120 24 -156 30 -194 39 -250 6 -33 15 -87 20 -120 6 -33 15 -87 21 -120 6 -33 15 -85 20 -115 4 -30 10 -66 13 -80 3 -14 10 -50 16 -80 31 -161 31 -162 59 -155 33 8 76 -10 92 -40 15 -28 9 -74 -26 -195 -20 -70 -23 -94 -15 -130 20 -97 80 -300 93 -315 4 -5 8 -15 8 -22 0 -16 35 -91 55 -117 15 -20 15 -20 29 0 45 60 106 231 156 439 37 155 58 255 90 420 6 33 15 80 20 105 9 48 24 131 40 230 5 33 14 87 20 120 5 33 14 87 20 120 5 33 14 86 20 118 5 31 14 89 20 127 6 39 15 95 20 125 5 30 14 88 20 127 6 40 15 102 20 138 6 36 14 94 20 130 5 36 14 98 20 138 6 39 15 97 20 127 5 30 14 91 20 135 6 44 15 105 20 135 5 30 14 88 20 127 22 151 30 205 40 268 6 36 15 94 20 130 6 36 15 95 20 133 6 37 15 92 20 122 5 30 14 89 20 130 7 41 15 95 20 120 5 25 14 79 20 120 6 41 15 95 20 120 5 25 13 73 19 108 26 151 33 190 41 232 5 25 14 70 20 100 5 30 17 91 26 135 9 44 20 98 24 120 14 76 41 200 60 283 53 218 63 262 81 327 57 208 78 272 138 438 35 94 35 94 1 112 -17 9 -37 30 -44 47 -11 26 -11 35 5 68 22 45 55 57 105 38 33 -12 37 -11 55 12 10 14 19 29 19 33 0 15 97 152 145 205 26 29 45 55 42 58 -9 10 -152 -52 -216 -94 -70 -46 -90 -50 -125 -27 -38 25 -51 67 -32 104 32 61 202 154 341 186 144 33 360 46 382 24 7 -7 33 -9 69 -5 242 22 629 28 2094 31 877 1 1649 -1 1714 -5 113 -6 120 -8 143 -34 12 -15 23 -37 23 -49 0 -26 -27 -61 -55 -72 -11 -5 -862 -9 -1892 -11 -1879 -2 -1919 -3 -2068 -36 -115 -26 -228 -94 -310 -187 -64 -73 -162 -236 -147 -245 5 -3 8 -19 7 -36 -2 -31 -27 -66 -54 -75 -9 -2 -26 -33 -39 -67 -13 -35 -27 -72 -32 -83 -9 -20 -30 -85 -65 -195 -25 -79 -80 -293 -126 -490 -20 -84 -26 -111 -49 -220 -6 -30 -15 -73 -20 -95 -5 -22 -14 -69 -20 -105 -6 -36 -15 -83 -20 -105 -5 -22 -14 -69 -20 -105 -6 -36 -15 -85 -20 -110 -9 -47 -23 -129 -40 -232 -6 -35 -15 -85 -20 -113 -5 -27 -14 -84 -20 -125 -7 -41 -15 -95 -20 -120 -5 -25 -13 -79 -20 -120 -6 -41 -15 -100 -20 -130 -5 -30 -14 -89 -20 -130 -6 -41 -15 -100 -20 -130 -5 -30 -14 -88 -20 -127 -6 -40 -15 -102 -20 -138 -6 -36 -14 -94 -20 -130 -5 -36 -14 -97 -20 -135 -6 -38 -15 -99 -20 -135 -6 -36 -14 -94 -20 -130 -5 -36 -14 -98 -20 -138 -6 -39 -15 -97 -20 -127 -5 -30 -14 -89 -20 -130 -6 -41 -15 -100 -20 -130 -5 -30 -14 -89 -20 -130 -11 -75 -21 -138 -40 -250 -6 -33 -15 -87 -20 -120 -25 -152 -32 -188 -40 -237 -17 -89 -29 -155 -40 -213 -6 -30 -15 -80 -21 -110 -59 -309 -159 -667 -211 -758 -12 -20 -28 -50 -36 -65 -15 -31 -73 -77 -120 -96 -25 -11 -36 -9 -85 14 -45 20 -64 37 -95 83 -21 31 -49 84 -61 117 -27 70 -35 90 -50 128 -6 15 -11 36 -11 46 0 10 -6 23 -13 29 -9 8 -24 -1 -57 -35 -51 -51 -76 -63 -127 -63 -41 0 -103 27 -103 45 0 7 -15 26 -34 42 -71 59 -137 221 -225 555 -12 43 -21 98 -21 122 0 38 4 48 29 65 33 24 50 26 84 10 30 -13 41 -35 61 -114 29 -118 57 -218 82 -293 33 -99 110 -262 123 -262 12 0 48 55 73 110 41 90 47 110 39 137 -5 16 -14 55 -21 88 -6 33 -15 78 -20 100 -5 22 -14 69 -20 105 -6 36 -15 83 -20 105 -8 38 -17 87 -40 228 -6 34 -15 85 -20 112 -11 62 -25 147 -40 245 -7 41 -16 95 -20 120 -10 50 -24 138 -40 250 -6 41 -15 100 -20 130 -5 30 -14 89 -20 130 -6 41 -15 100 -20 130 -5 30 -14 89 -20 130 -6 41 -15 103 -20 138 -6 34 -14 91 -20 127 -5 36 -14 94 -20 130 -5 36 -15 95 -20 132 -6 38 -15 93 -20 123 -5 30 -14 89 -20 130 -14 95 -34 215 -60 368 -13 76 -39 234 -50 302 -5 30 -13 80 -19 110 -5 30 -13 71 -16 90 -3 19 -10 58 -15 85 -28 147 -36 191 -66 340 -9 44 -20 98 -24 120 -6 35 -35 164 -60 275 -37 163 -40 172 -70 285 -54 203 -87 310 -128 420 -135 364 -251 545 -415 649 -89 56 -173 83 -334 106 -114 16 -119 15 -140 -27 -26 -54 -64 -63 -142 -34 -78 30 -114 38 -251 57 -103 15 -322 16 -2143 15 -2209 -1 -2052 -5 -2083 54 -20 40 -18 51 21 89 l34 35 2226 -4 c1224 -2 2229 -7 2234 -9z m1038 -34 c20 -9 36 -25 42 -43 12 -34 6 -55 -22 -86 -18 -20 -30 -23 -98 -23 -43 0 -101 5 -129 11 -46 10 -54 15 -66 46 -16 37 -15 39 27 88 16 17 30 20 116 20 60 0 110 -5 130 -13z m593 -27 c25 -2 79 -6 120 -9 41 -3 75 -5 75 -6 0 -1 50 -7 120 -14 40 -4 56 -11 78 -36 31 -35 33 -49 12 -89 -16 -32 -66 -57 -92 -46 -10 4 -54 9 -98 12 -44 2 -87 7 -95 10 -8 3 -37 8 -65 9 -68 5 -163 12 -204 17 -24 3 -43 14 -63 38 -33 40 -33 40 -8 81 28 46 44 49 220 33z m898 -120 c23 -4 45 -12 48 -16 3 -5 9 -7 13 -4 11 6 298 -67 414 -106 126 -42 160 -83 120 -147 -9 -15 -18 -28 -19 -30 -4 -8 -69 -10 -92 -2 -136 43 -245 73 -342 95 -63 15 -122 29 -130 32 -16 6 -24 8 -83 16 -73 11 -105 54 -93 121 10 50 51 60 164 41z m5640 -49 c16 -16 27 -110 15 -129 -4 -6 -8 -25 -10 -42 -8 -60 -11 -80 -13 -80 -1 0 -4 -11 -5 -25 -13 -136 -31 -168 -98 -168 -44 1 -106 86 -80 111 3 4 8 22 10 39 7 58 11 83 12 83 4 0 13 80 12 102 0 12 4 25 9 28 6 4 8 11 4 16 -3 6 6 28 21 51 26 38 29 40 67 35 23 -3 48 -12 56 -21z m-7663 -348 c24 -22 91 -163 136 -288 63 -172 110 -331 111 -369 1 -53 -26 -81 -79 -81 -43 0 -73 31 -92 96 -46 162 -137 407 -186 504 -33 66 -33 112 1 139 35 27 76 27 109 -1z m2700 -153 c33 -32 32 -63 -6 -160 -63 -162 -105 -290 -149 -455 -15 -57 -31 -92 -47 -107 -50 -47 -133 -13 -133 54 0 63 133 493 193 623 33 73 95 93 142 45z m932 -130 c12 -12 42 -32 66 -44 25 -13 59 -36 76 -52 18 -16 35 -29 39 -29 4 0 20 -13 35 -30 16 -16 34 -30 41 -30 7 0 22 -10 34 -22 12 -13 34 -33 49 -45 78 -63 99 -81 135 -115 32 -32 37 -42 32 -65 -8 -33 -22 -73 -26 -74 -54 -12 -85 -7 -110 16 -15 14 -32 25 -37 25 -6 0 -16 9 -23 20 -7 11 -18 20 -24 20 -7 0 -22 13 -35 30 -13 16 -30 30 -37 30 -7 0 -15 7 -18 15 -4 9 -26 27 -50 41 -24 14 -44 30 -44 35 0 5 -6 9 -12 9 -7 0 -31 16 -53 36 -22 19 -54 42 -70 50 -17 8 -46 28 -64 44 -18 17 -36 30 -40 30 -9 0 -22 32 -26 65 -4 27 31 73 58 77 31 5 78 -11 104 -37z m3895 -152 c22 -24 25 -35 22 -73 -5 -49 -10 -85 -13 -85 -2 0 -5 -18 -7 -40 -3 -26 -15 -50 -34 -69 -27 -28 -31 -29 -67 -18 -50 15 -78 59 -67 105 4 18 8 37 9 42 1 6 3 12 4 15 2 3 5 25 7 49 8 66 36 101 83 101 28 0 44 -7 63 -27z m-3019 -600 c45 -43 86 -83 90 -90 4 -7 5 -28 1 -48 -4 -25 -15 -40 -42 -56 -45 -26 -50 -23 -156 79 -66 63 -76 77 -76 107 0 28 6 39 37 60 21 14 44 25 51 25 7 0 50 -35 95 -77z m2893 -28 c22 -30 25 -40 19 -72 -4 -21 -9 -49 -11 -62 -5 -42 -65 -275 -75 -293 -5 -10 -9 -26 -9 -35 0 -10 -6 -38 -14 -63 -8 -25 -25 -78 -37 -117 -18 -60 -27 -76 -54 -93 -42 -26 -48 -26 -89 11 -32 28 -35 35 -31 72 3 23 11 58 19 77 8 19 19 53 25 75 22 83 42 162 56 220 7 33 19 73 25 89 6 16 13 50 16 75 7 63 44 134 74 142 46 13 59 9 86 -26z m-7024 -155 c14 -11 29 -34 33 -52 4 -18 11 -51 16 -73 5 -22 13 -60 18 -85 5 -25 25 -124 44 -220 20 -96 39 -201 43 -232 6 -52 4 -58 -19 -82 -42 -42 -104 -32 -130 22 -8 15 -19 61 -26 102 -7 41 -15 82 -18 90 -2 8 -9 38 -13 65 -5 28 -23 115 -41 195 -17 80 -33 168 -36 196 -5 46 -3 53 22 72 34 27 75 28 107 2z m1959 -150 c10 -6 25 -24 34 -39 15 -29 9 -76 -35 -266 -5 -22 -18 -92 -30 -155 -12 -63 -28 -149 -36 -190 -18 -91 -39 -124 -84 -128 -43 -4 -77 14 -89 48 -9 26 -1 81 39 275 6 28 26 130 45 229 20 98 40 187 45 197 20 36 71 50 111 29z m2597 -118 c23 -26 58 -63 77 -83 19 -19 35 -39 35 -43 0 -5 18 -24 40 -43 22 -20 40 -41 40 -47 0 -7 14 -22 30 -34 17 -13 30 -27 30 -32 0 -6 15 -26 33 -44 73 -78 94 -103 115 -137 28 -47 28 -52 -9 -93 -24 -28 -37 -35 -59 -32 -34 4 -80 31 -80 47 0 6 -18 27 -40 46 -22 20 -40 41 -40 49 0 7 -13 22 -30 34 -16 12 -30 26 -30 32 0 6 -18 26 -40 45 -22 20 -40 41 -40 49 0 7 -13 22 -30 34 -16 12 -30 26 -30 32 0 6 -18 26 -40 45 -22 20 -40 41 -40 48 0 7 -12 22 -26 32 -35 26 -45 100 -18 124 46 41 95 32 152 -29z m2136 -636 c39 -33 41 -69 5 -140 -16 -33 -29 -63 -29 -68 0 -5 -12 -25 -27 -44 -24 -29 -34 -34 -69 -34 -79 0 -101 65 -54 160 16 30 35 72 44 93 25 59 81 73 130 33z m-1365 -226 c95 -94 103 -122 50 -171 -17 -16 -37 -29 -44 -29 -24 0 -60 26 -122 87 -76 75 -93 121 -62 165 16 22 28 28 58 28 34 0 47 -8 120 -80z m-5093 -119 c32 -20 36 -30 64 -198 5 -32 12 -74 15 -93 41 -239 65 -390 65 -413 0 -43 -42 -79 -87 -75 -46 4 -73 38 -85 110 -5 29 -13 80 -19 113 -5 33 -14 86 -19 118 -6 31 -14 83 -19 115 -5 31 -17 95 -25 142 -24 133 -20 160 29 188 28 16 46 15 81 -7z m1511 -177 c32 -32 32 -34 -27 -369 -27 -151 -39 -229 -46 -280 -12 -88 -41 -119 -104 -113 -22 2 -40 12 -53 30 -21 28 -20 56 13 248 5 30 14 82 19 115 46 279 60 346 74 366 28 37 89 38 124 3z m4612 -19 c15 -15 24 -35 24 -54 0 -41 -73 -113 -150 -147 -32 -14 -68 -30 -79 -36 -12 -5 -36 -11 -53 -13 -17 -1 -33 -4 -36 -7 -6 -5 -113 -1 -173 7 -43 6 -141 40 -199 70 -18 9 -42 32 -54 52 -22 35 -22 36 -4 70 34 63 55 64 175 11 75 -34 122 -44 190 -43 79 2 180 37 218 76 52 53 96 57 141 14z m-5884 -1095 c7 -14 18 -56 25 -95 6 -38 15 -90 20 -115 5 -25 13 -73 19 -107 26 -153 32 -182 46 -255 20 -104 19 -125 -10 -153 -46 -47 -127 -23 -140 40 -3 14 -8 37 -11 53 -3 15 -10 50 -14 77 -40 227 -52 297 -61 345 -35 192 -32 221 23 245 40 16 83 2 103 -35z m1032 -126 c12 -3 28 -20 37 -38 16 -33 14 -58 -14 -208 -25 -140 -41 -228 -55 -308 -3 -19 -10 -53 -15 -75 -5 -22 -12 -57 -15 -78 -3 -20 -16 -46 -27 -57 -30 -27 -87 -26 -117 2 -22 19 -23 26 -17 87 4 36 11 84 16 106 5 22 14 69 20 105 6 36 15 85 20 110 5 25 13 72 19 105 34 188 40 210 66 233 27 23 44 26 82 16z m-1817 -2124 c197 -15 276 -44 347 -124 22 -25 45 -62 51 -84 9 -28 12 -182 12 -526 l0 -487 -25 -24 c-21 -22 -33 -25 -93 -25 -54 0 -75 4 -93 19 l-24 19 -5 374 -5 373 -359 3 c-395 3 -456 -4 -506 -54 l-25 -24 -3 -338 c-3 -396 5 -372 -115 -372 -59 0 -75 4 -94 22 l-23 21 0 362 0 361 26 52 c49 98 149 150 334 172 46 5 237 10 423 10 295 0 338 2 327 14 -28 34 -111 51 -260 52 -185 1 -176 0 -200 24 -16 16 -20 33 -20 80 0 53 3 64 26 85 32 29 81 32 304 15z m-2965 -283 c97 -19 188 -62 231 -110 68 -74 69 -82 69 -377 0 -254 -1 -267 -22 -306 -36 -68 -105 -120 -197 -151 l-81 -27 -420 -6 -420 -5 -6 -105 c-3 -58 -11 -115 -18 -128 -18 -33 -57 -45 -128 -37 -105 11 -98 -29 -98 534 0 440 2 489 17 517 53 97 146 154 323 199 73 19 655 20 750 2z m1613 -2 c124 -29 192 -79 234 -170 22 -48 23 -61 23 -300 0 -267 -5 -299 -52 -362 -76 -103 -244 -152 -517 -153 -109 0 -122 2 -143 22 -31 29 -33 113 -2 152 20 26 22 26 147 26 70 1 154 7 187 14 65 14 125 41 125 56 0 6 -155 10 -422 10 -424 1 -449 2 -563 38 -89 27 -171 95 -200 164 -24 58 -21 277 4 326 41 80 138 142 281 181 19 5 215 10 435 10 320 1 413 -2 463 -14z m2604 -2 c14 -12 18 -31 18 -79 0 -56 -3 -65 -26 -83 -22 -17 -41 -21 -110 -21 -118 0 -232 -17 -284 -44 -49 -24 -90 -76 -90 -112 l0 -24 544 0 545 0 20 -26 c19 -25 21 -40 21 -189 0 -198 -10 -235 -79 -297 -27 -24 -70 -51 -97 -62 -118 -44 -136 -46 -485 -46 -309 0 -342 2 -420 21 -106 27 -157 51 -212 100 -82 72 -87 92 -87 376 0 239 1 250 24 298 27 59 96 125 160 155 82 37 161 48 355 49 159 1 187 -1 203 -16z m1724 3 c117 -25 199 -87 230 -173 16 -46 18 -183 3 -236 -12 -44 -68 -111 -112 -133 -81 -42 -114 -46 -457 -54 -344 -8 -394 -14 -431 -51 -21 -21 -25 -59 -9 -89 17 -32 70 -42 255 -47 99 -3 188 -10 197 -14 39 -21 41 -127 2 -170 -15 -17 -32 -19 -168 -19 -190 0 -321 19 -401 58 -39 19 -93 69 -111 105 -22 41 -28 143 -14 211 10 51 20 67 64 111 91 91 215 115 595 115 313 0 351 10 351 95 0 51 -26 78 -92 94 -31 7 -184 11 -456 11 -478 0 -453 -5 -460 96 -3 50 0 62 18 82 l21 22 457 0 c337 -1 473 -4 518 -14z m1614 -7 c143 -39 237 -105 280 -196 19 -41 20 -62 20 -426 l0 -383 -26 -53 c-32 -63 -101 -121 -171 -143 -133 -43 -136 -43 -746 -43 l-589 0 -19 24 c-18 22 -19 47 -19 612 0 576 0 589 20 609 20 20 33 20 598 20 553 0 581 -1 652 -21z m631 -5 c25 -27 26 -33 29 -406 0 -5 198 -8 439 -8 349 0 455 -3 517 -15 183 -35 274 -87 329 -186 28 -52 30 -60 33 -204 3 -94 0 -166 -8 -193 -23 -89 -119 -158 -280 -203 l-85 -24 -578 0 -579 0 -24 28 -24 28 0 578 c0 688 -11 631 124 631 76 0 84 -2 107 -26z"/>
 <path d="M2023 1275 c-39 -7 -87 -21 -106 -30 -69 -32 -68 -26 -68 -296 l0 -244 368 0 c395 0 454 6 510 50 l28 23 3 209 c3 203 2 210 -19 237 -44 56 -68 60 -369 63 -197 1 -295 -2 -347 -12z"/>
 <path d="M3470 1276 c-51 -15 -106 -41 -115 -56 -12 -19 -8 -159 4 -174 7 -8 33 -25 59 -38 47 -23 50 -23 473 -26 l427 -3 6 83 c11 143 -15 196 -105 216 -72 17 -688 15 -749 -2z"/>
 <path d="M6417 893 c-4 -3 -7 -32 -7 -64 0 -50 3 -60 26 -78 14 -11 40 -24 57 -30 100 -32 460 -41 626 -16 171 26 191 39 191 132 l0 63 -443 0 c-244 0 -447 -3 -450 -7z"/>
 <path d="M9230 855 l0 -425 417 0 c428 0 515 6 583 40 77 39 75 27 78 359 4 328 0 356 -51 395 -68 52 -113 56 -589 56 l-438 0 0 -425z"/>
 <path d="M10910 836 c0 -3 0 -91 0 -196 0 -104 0 -194 0 -200 0 -16 838 -13 925 3 136 26 148 41 143 186 -3 106 -4 111 -33 141 -59 61 -82 64 -582 68 -249 2 -453 1 -453 -2z"/>
 </g>

</svg>